<?xml version="1.0" encoding="utf-8"?>
<!-- Generator: Adobe Illustrator 19.2.0, SVG Export Plug-In . SVG Version: 6.00 Build 0)  -->
<svg version="1.1" xmlns="http://www.w3.org/2000/svg" xmlns:xlink="http://www.w3.org/1999/xlink" x="0px" y="0px" width="711.7px"
	 height="450px" viewBox="0 0 711.7 450" style="enable-background:new 0 0 711.7 450;" xml:space="preserve">
<style type="text/css">
	.st0{display:none;}
	.st1{display:inline;fill:none;stroke:#FFDEED;stroke-width:2;stroke-miterlimit:10;}
	.st2{display:inline;}
	.st3{font-family:'MyriadPro-Regular';}
	.st4{font-size:32px;}
	.st5{fill:#010002;}
	.st6{display:inline;fill:none;stroke:#B6275E;stroke-width:7;stroke-miterlimit:10;}
	.st7{fill:#FFF3F8;}
	.st8{fill:#DEEDFF;}
	.st9{fill:#99C3FF;}
	.st10{fill:#B6275E;}
	.st11{fill:#F9CDDF;}
</style>
<g id="Layer_1" class="st0">
	<line class="st1" x1="295.7" y1="-20.2" x2="295.7" y2="290.4"/>
	<line class="st1" x1="529.8" y1="-20.2" x2="529.8" y2="290.4"/>
	<text transform="matrix(1 0 0 1 127.6595 -4.2555)" class="st2 st3 st4">Team A</text>
	<text transform="matrix(1 0 0 1 358.5106 -4.2555)" class="st2 st3 st4">Team B</text>
	<text transform="matrix(1 0 0 1 589.3616 -4.2555)" class="st2 st3 st4">Team C</text>
	<text transform="matrix(1 0 0 1 -43.6171 128.7232)" class="st2 st3 st4">Frontend</text>
	<g class="st2">
		<g>
			<path class="st5" d="M197.8,141.4c-4.8-2.5-9.8-4.5-14.9-6.5c-0.4-0.1-0.8-0.4-1-0.8c-0.4-0.9-0.7-1.9-1-2.8
				c-0.2-0.6-0.4-1.2-1-1.5c-0.2-0.1-0.3-0.4-0.3-0.7c0-2.2-0.5-4.6,1.2-6.5c0.1-0.1,0.1-0.1,0.1-0.2c0.9-1.9,1-4.2,2.3-6
				c0,0,0-0.1,0-0.2c0.1-1.4,0.3-2.8,0.4-4.1c0-0.2-0.1-0.5-0.3-0.5c-0.7-0.2-0.6-0.8-0.6-1.3c0-2.7,0-5.4,0-8.1c0-1.6-0.5-3-1.6-4
				c-1.3-1.2-2.7-2.4-4.1-3.6c-0.7-0.6-0.7-1-0.1-1.6c0.3-0.3,0.6-0.5,1-0.7c-0.1-0.1-0.1-0.2-0.2-0.3c-0.4,0-0.8-0.1-1.3,0
				c-1.5,0.2-3.1,0.5-4.6,0.8c-2.9,0.7-5.7,1.6-8,3.5c-1.6,1.3-2.9,2.9-3,5c-0.1,1.1-0.1,2.3-0.1,3.4c0,1.9,0,3.7,0,5.6
				c0,0.3-0.2,0.8-0.4,0.9c-0.8,0.2-0.8,0.7-0.7,1.3c0.1,0.4,0,0.9,0.1,1.3c0.3,1.2,0.5,2.3,0.9,3.5c0.3,0.9,0.7,1.7,0.9,2.5
				c0.3,1.7,0.9,3.2,2.1,4.5c0.2,0.2,0.3,0.6,0.3,0.9c-0.1,1.3-0.2,2.7-0.4,4c0,0.3-0.3,0.6-0.5,0.7c-0.9,0.2-1,0.9-1.2,1.6
				c-0.3,0.9-0.6,1.8-0.9,2.7c-0.1,0.3-0.4,0.6-0.7,0.7c-1.6,0.7-3.2,1.3-4.8,2c-1.7,0.7-3.4,1.4-5,2.2c-1.7,0.8-3.3,1.7-5,2.6
				c-1,0.5-1.9,1.1-2.7,1.8v2.9c19.3,0,38.5,0,57.8,0v-3C199.6,142.5,198.8,141.9,197.8,141.4z"/>
			<path class="st5" d="M219.8,138.8c-2.3-0.9-4.6-1.8-6.8-2.9c-0.6-0.3-1.1-0.9-1.7-1.4c-0.3-0.2-0.6-0.4-0.9-0.4
				c-1-0.2-1.5-0.5-1.7-1.6c-0.3-1.3-0.6-2.7-0.3-4.1c0.1-0.6,0.3-1,0.9-1.2c1.2-0.5,2.5-1,3.7-1.5c0.9-0.4,1-0.7,0.6-1.7
				c-1.1-3-1.8-6-2.1-9.2c-0.2-2-0.1-4.1-0.6-6h-0.1c0-0.2-0.1-0.4-0.1-0.5c-0.9-3.5-4.6-5.4-7.8-5.6c0,0-0.1,0-0.1,0
				c-0.2,0-0.5,0-0.7,0c-1.3,0.2-2.4,1-3.7,1.4c-1.6,0.5-2.6,2-3.3,3.6c-0.9,2.3-0.7,4.8-0.9,7.2c-0.3,3.2-1,6.2-2.1,9.2
				c-0.3,0.9-0.3,1.3,0.6,1.7c1.2,0.5,2.4,1.1,3.7,1.5c0.6,0.2,0.8,0.6,0.9,1.2c0.3,1.4,0.1,2.8-0.3,4.1c-0.2,1-0.7,1.4-1.8,1.6
				c-0.3,0-0.6,0.2-0.9,0.4c-0.6,0.4-1.1,1.1-1.7,1.4c-0.3,0.1-0.5,0.2-0.8,0.4c2.2,1,4.4,2,6.7,3.1c1.2,0.6,2.2,1.4,3.1,2.3
				l0.6,0.6v3.9c0.1,0,0.3,0,0.4,0c0,0,0,0,0.1,0c7.8,0,15.5,0,23.3,0C225.7,142.4,223.3,140.1,219.8,138.8z"/>
		</g>
	</g>
	<g class="st2">
		<g>
			<path class="st5" d="M422.3,141.4c-4.8-2.5-9.8-4.5-14.9-6.5c-0.4-0.1-0.8-0.4-1-0.8c-0.4-0.9-0.7-1.9-1-2.8
				c-0.2-0.6-0.4-1.2-1-1.5c-0.2-0.1-0.3-0.4-0.3-0.7c0-2.2-0.5-4.6,1.2-6.5c0.1-0.1,0.1-0.1,0.1-0.2c0.9-1.9,1-4.2,2.3-6
				c0,0,0-0.1,0-0.2c0.1-1.4,0.3-2.8,0.4-4.1c0-0.2-0.1-0.5-0.3-0.5c-0.7-0.2-0.6-0.8-0.6-1.3c0-2.7,0-5.4,0-8.1c0-1.6-0.5-3-1.6-4
				c-1.3-1.2-2.7-2.4-4.1-3.6c-0.7-0.6-0.7-1-0.1-1.6c0.3-0.3,0.6-0.5,1-0.7c-0.1-0.1-0.1-0.2-0.2-0.3c-0.4,0-0.8-0.1-1.3,0
				c-1.5,0.2-3.1,0.5-4.6,0.8c-2.9,0.7-5.7,1.6-8,3.5c-1.6,1.3-2.9,2.9-3,5c-0.1,1.1-0.1,2.3-0.1,3.4c0,1.9,0,3.7,0,5.6
				c0,0.3-0.2,0.8-0.4,0.9c-0.8,0.2-0.8,0.7-0.7,1.3c0.1,0.4,0,0.9,0.1,1.3c0.3,1.2,0.5,2.3,0.9,3.5c0.3,0.9,0.7,1.7,0.9,2.5
				c0.3,1.7,0.9,3.2,2.1,4.5c0.2,0.2,0.3,0.6,0.3,0.9c-0.1,1.3-0.2,2.7-0.4,4c0,0.3-0.3,0.6-0.5,0.7c-0.9,0.2-1,0.9-1.2,1.6
				c-0.3,0.9-0.6,1.8-0.9,2.7c-0.1,0.3-0.4,0.6-0.7,0.7c-1.6,0.7-3.2,1.3-4.8,2c-1.7,0.7-3.4,1.4-5,2.2c-1.7,0.8-3.3,1.7-5,2.6
				c-1,0.5-1.9,1.1-2.7,1.8v2.9c19.3,0,38.5,0,57.8,0v-3C424.1,142.5,423.2,141.9,422.3,141.4z"/>
			<path class="st5" d="M444.3,138.8c-2.3-0.9-4.6-1.8-6.8-2.9c-0.6-0.3-1.1-0.9-1.7-1.4c-0.3-0.2-0.6-0.4-0.9-0.4
				c-1-0.2-1.5-0.5-1.7-1.6c-0.3-1.3-0.6-2.7-0.3-4.1c0.1-0.6,0.3-1,0.9-1.2c1.2-0.5,2.5-1,3.7-1.5c0.9-0.4,1-0.7,0.6-1.7
				c-1.1-3-1.8-6-2.1-9.2c-0.2-2-0.1-4.1-0.6-6h-0.1c0-0.2-0.1-0.4-0.1-0.5c-0.9-3.5-4.6-5.4-7.8-5.6c0,0-0.1,0-0.1,0
				c-0.2,0-0.5,0-0.7,0c-1.3,0.2-2.4,1-3.7,1.4c-1.6,0.5-2.6,2-3.3,3.6c-0.9,2.3-0.7,4.8-0.9,7.2c-0.3,3.2-1,6.2-2.1,9.2
				c-0.3,0.9-0.3,1.3,0.6,1.7c1.2,0.5,2.4,1.1,3.7,1.5c0.6,0.2,0.8,0.6,0.9,1.2c0.3,1.4,0.1,2.8-0.3,4.1c-0.2,1-0.7,1.4-1.8,1.6
				c-0.3,0-0.6,0.2-0.9,0.4c-0.6,0.4-1.1,1.1-1.7,1.4c-0.3,0.1-0.5,0.2-0.8,0.4c2.2,1,4.4,2,6.7,3.1c1.2,0.6,2.2,1.4,3.1,2.3
				l0.6,0.6v3.9c0.1,0,0.3,0,0.4,0c0,0,0,0,0.1,0c7.8,0,15.5,0,23.3,0C450.2,142.4,447.8,140.1,444.3,138.8z"/>
		</g>
	</g>
	<g class="st2">
		<g>
			<path class="st5" d="M646.7,141.4c-4.8-2.5-9.8-4.5-14.9-6.5c-0.4-0.1-0.8-0.4-1-0.8c-0.4-0.9-0.7-1.9-1-2.8
				c-0.2-0.6-0.4-1.2-1-1.5c-0.2-0.1-0.3-0.4-0.3-0.7c0-2.2-0.5-4.6,1.2-6.5c0.1-0.1,0.1-0.1,0.1-0.2c0.9-1.9,1-4.2,2.3-6
				c0,0,0-0.1,0-0.2c0.1-1.4,0.3-2.8,0.4-4.1c0-0.2-0.1-0.5-0.3-0.5c-0.7-0.2-0.6-0.8-0.6-1.3c0-2.7,0-5.4,0-8.1c0-1.6-0.5-3-1.6-4
				c-1.3-1.2-2.7-2.4-4.1-3.6c-0.7-0.6-0.7-1-0.1-1.6c0.3-0.3,0.6-0.5,1-0.7c-0.1-0.1-0.1-0.2-0.2-0.3c-0.4,0-0.8-0.1-1.3,0
				c-1.5,0.2-3.1,0.5-4.6,0.8c-2.9,0.7-5.7,1.6-8,3.5c-1.6,1.3-2.9,2.9-3,5c-0.1,1.1-0.1,2.3-0.1,3.4c0,1.9,0,3.7,0,5.6
				c0,0.3-0.2,0.8-0.4,0.9c-0.8,0.2-0.8,0.7-0.7,1.3c0.1,0.4,0,0.9,0.1,1.3c0.3,1.2,0.5,2.3,0.9,3.5c0.3,0.9,0.7,1.7,0.9,2.5
				c0.3,1.7,0.9,3.2,2.1,4.5c0.2,0.2,0.3,0.6,0.3,0.9c-0.1,1.3-0.2,2.7-0.4,4c0,0.3-0.3,0.6-0.5,0.7c-0.9,0.2-1,0.9-1.2,1.6
				c-0.3,0.9-0.6,1.8-0.9,2.7c-0.1,0.3-0.4,0.6-0.7,0.7c-1.6,0.7-3.2,1.3-4.8,2c-1.7,0.7-3.4,1.4-5,2.2c-1.7,0.8-3.3,1.7-5,2.6
				c-1,0.5-1.9,1.1-2.7,1.8v2.9c19.3,0,38.5,0,57.8,0v-3C648.5,142.5,647.7,141.9,646.7,141.4z"/>
			<path class="st5" d="M668.7,138.8c-2.3-0.9-4.6-1.8-6.8-2.9c-0.6-0.3-1.1-0.9-1.7-1.4c-0.3-0.2-0.6-0.4-0.9-0.4
				c-1-0.2-1.5-0.5-1.7-1.6c-0.3-1.3-0.6-2.7-0.3-4.1c0.1-0.6,0.3-1,0.9-1.2c1.2-0.5,2.5-1,3.7-1.5c0.9-0.4,1-0.7,0.6-1.7
				c-1.1-3-1.8-6-2.1-9.2c-0.2-2-0.1-4.1-0.6-6h-0.1c0-0.2-0.1-0.4-0.1-0.5c-0.9-3.5-4.6-5.4-7.8-5.6c0,0-0.1,0-0.1,0
				c-0.2,0-0.5,0-0.7,0c-1.3,0.2-2.4,1-3.7,1.4c-1.6,0.5-2.6,2-3.3,3.6c-0.9,2.3-0.7,4.8-0.9,7.2c-0.3,3.2-1,6.2-2.1,9.2
				c-0.3,0.9-0.3,1.3,0.6,1.7c1.2,0.5,2.4,1.1,3.7,1.5c0.6,0.2,0.8,0.6,0.9,1.2c0.3,1.4,0.1,2.8-0.3,4.1c-0.2,1-0.7,1.4-1.8,1.6
				c-0.3,0-0.6,0.2-0.9,0.4c-0.6,0.4-1.1,1.1-1.7,1.4c-0.3,0.1-0.5,0.2-0.8,0.4c2.2,1,4.4,2,6.7,3.1c1.2,0.6,2.2,1.4,3.1,2.3
				l0.6,0.6v3.9c0.1,0,0.3,0,0.4,0c0,0,0,0,0.1,0c7.8,0,15.5,0,23.3,0C674.6,142.4,672.3,140.1,668.7,138.8z"/>
		</g>
	</g>
	<text transform="matrix(1 0 0 1 -43.6171 287.2339)" class="st2 st3 st4">Backend</text>
	<g class="st2">
		<g>
			<path class="st5" d="M197.8,287.3c-4.8-2.5-9.8-4.5-14.9-6.5c-0.4-0.1-0.8-0.4-1-0.8c-0.4-0.9-0.7-1.9-1-2.8
				c-0.2-0.6-0.4-1.2-1-1.5c-0.2-0.1-0.3-0.4-0.3-0.7c0-2.2-0.5-4.6,1.2-6.5c0.1-0.1,0.1-0.1,0.1-0.2c0.9-1.9,1-4.2,2.3-6
				c0,0,0-0.1,0-0.2c0.1-1.4,0.3-2.8,0.4-4.1c0-0.2-0.1-0.5-0.3-0.5c-0.7-0.2-0.6-0.8-0.6-1.3c0-2.7,0-5.4,0-8.1c0-1.6-0.5-3-1.6-4
				c-1.3-1.2-2.7-2.4-4.1-3.6c-0.7-0.6-0.7-1-0.1-1.6c0.3-0.3,0.6-0.5,1-0.7c-0.1-0.1-0.1-0.2-0.2-0.3c-0.4,0-0.8-0.1-1.3,0
				c-1.5,0.2-3.1,0.5-4.6,0.8c-2.9,0.7-5.7,1.6-8,3.5c-1.6,1.3-2.9,2.9-3,5c-0.1,1.1-0.1,2.3-0.1,3.4c0,1.9,0,3.7,0,5.6
				c0,0.3-0.2,0.8-0.4,0.9c-0.8,0.2-0.8,0.7-0.7,1.3c0.1,0.4,0,0.9,0.1,1.3c0.3,1.2,0.5,2.3,0.9,3.5c0.3,0.9,0.7,1.7,0.9,2.5
				c0.3,1.7,0.9,3.2,2.1,4.5c0.2,0.2,0.3,0.6,0.3,0.9c-0.1,1.3-0.2,2.7-0.4,4c0,0.3-0.3,0.6-0.5,0.7c-0.9,0.2-1,0.9-1.2,1.6
				c-0.3,0.9-0.6,1.8-0.9,2.7c-0.1,0.3-0.4,0.6-0.7,0.7c-1.6,0.7-3.2,1.3-4.8,2c-1.7,0.7-3.4,1.4-5,2.2c-1.7,0.8-3.3,1.7-5,2.6
				c-1,0.5-1.9,1.1-2.7,1.8v2.9c19.3,0,38.5,0,57.8,0v-3C199.6,288.4,198.8,287.8,197.8,287.3z"/>
			<path class="st5" d="M219.8,284.7c-2.3-0.9-4.6-1.8-6.8-2.9c-0.6-0.3-1.1-0.9-1.7-1.4c-0.3-0.2-0.6-0.4-0.9-0.4
				c-1-0.2-1.5-0.5-1.7-1.6c-0.3-1.3-0.6-2.7-0.3-4.1c0.1-0.6,0.3-1,0.9-1.2c1.2-0.5,2.5-1,3.7-1.5c0.9-0.4,1-0.7,0.6-1.7
				c-1.1-3-1.8-6-2.1-9.2c-0.2-2-0.1-4.1-0.6-6h-0.1c0-0.2-0.1-0.4-0.1-0.5c-0.9-3.5-4.6-5.4-7.8-5.6c0,0-0.1,0-0.1,0
				c-0.2,0-0.5,0-0.7,0c-1.3,0.2-2.4,1-3.7,1.4c-1.6,0.5-2.6,2-3.3,3.6c-0.9,2.3-0.7,4.8-0.9,7.2c-0.3,3.2-1,6.2-2.1,9.2
				c-0.3,0.9-0.3,1.3,0.6,1.7c1.2,0.5,2.4,1.1,3.7,1.5c0.6,0.2,0.8,0.6,0.9,1.2c0.3,1.4,0.1,2.8-0.3,4.1c-0.2,1-0.7,1.4-1.8,1.6
				c-0.3,0-0.6,0.2-0.9,0.4c-0.6,0.4-1.1,1.1-1.7,1.4c-0.3,0.1-0.5,0.2-0.8,0.4c2.2,1,4.4,2,6.7,3.1c1.2,0.6,2.2,1.4,3.1,2.3
				l0.6,0.6v3.9c0.1,0,0.3,0,0.4,0c0,0,0,0,0.1,0c7.8,0,15.5,0,23.3,0C225.7,288.3,223.3,286,219.8,284.7z"/>
		</g>
	</g>
	<g class="st2">
		<g>
			<path class="st5" d="M422.3,287.3c-4.8-2.5-9.8-4.5-14.9-6.5c-0.4-0.1-0.8-0.4-1-0.8c-0.4-0.9-0.7-1.9-1-2.8
				c-0.2-0.6-0.4-1.2-1-1.5c-0.2-0.1-0.3-0.4-0.3-0.7c0-2.2-0.5-4.6,1.2-6.5c0.1-0.1,0.1-0.1,0.1-0.2c0.9-1.9,1-4.2,2.3-6
				c0,0,0-0.1,0-0.2c0.1-1.4,0.3-2.8,0.4-4.1c0-0.2-0.1-0.5-0.3-0.5c-0.7-0.2-0.6-0.8-0.6-1.3c0-2.7,0-5.4,0-8.1c0-1.6-0.5-3-1.6-4
				c-1.3-1.2-2.7-2.4-4.1-3.6c-0.7-0.6-0.7-1-0.1-1.6c0.3-0.3,0.6-0.5,1-0.7c-0.1-0.1-0.1-0.2-0.2-0.3c-0.4,0-0.8-0.1-1.3,0
				c-1.5,0.2-3.1,0.5-4.6,0.8c-2.9,0.7-5.7,1.6-8,3.5c-1.6,1.3-2.9,2.9-3,5c-0.1,1.1-0.1,2.3-0.1,3.4c0,1.9,0,3.7,0,5.6
				c0,0.3-0.2,0.8-0.4,0.9c-0.8,0.2-0.8,0.7-0.7,1.3c0.1,0.4,0,0.9,0.1,1.3c0.3,1.2,0.5,2.3,0.9,3.5c0.3,0.9,0.7,1.7,0.9,2.5
				c0.3,1.7,0.9,3.2,2.1,4.5c0.2,0.2,0.3,0.6,0.3,0.9c-0.1,1.3-0.2,2.7-0.4,4c0,0.3-0.3,0.6-0.5,0.7c-0.9,0.2-1,0.9-1.2,1.6
				c-0.3,0.9-0.6,1.8-0.9,2.7c-0.1,0.3-0.4,0.6-0.7,0.7c-1.6,0.7-3.2,1.3-4.8,2c-1.7,0.7-3.4,1.4-5,2.2c-1.7,0.8-3.3,1.7-5,2.6
				c-1,0.5-1.9,1.1-2.7,1.8v2.9c19.3,0,38.5,0,57.8,0v-3C424.1,288.4,423.2,287.8,422.3,287.3z"/>
			<path class="st5" d="M444.3,284.7c-2.3-0.9-4.6-1.8-6.8-2.9c-0.6-0.3-1.1-0.9-1.7-1.4c-0.3-0.2-0.6-0.4-0.9-0.4
				c-1-0.2-1.5-0.5-1.7-1.6c-0.3-1.3-0.6-2.7-0.3-4.1c0.1-0.6,0.3-1,0.9-1.2c1.2-0.5,2.5-1,3.7-1.5c0.9-0.4,1-0.7,0.6-1.7
				c-1.1-3-1.8-6-2.1-9.2c-0.2-2-0.1-4.1-0.6-6h-0.1c0-0.2-0.1-0.4-0.1-0.5c-0.9-3.5-4.6-5.4-7.8-5.6c0,0-0.1,0-0.1,0
				c-0.2,0-0.5,0-0.7,0c-1.3,0.2-2.4,1-3.7,1.4c-1.6,0.5-2.6,2-3.3,3.6c-0.9,2.3-0.7,4.8-0.9,7.2c-0.3,3.2-1,6.2-2.1,9.2
				c-0.3,0.9-0.3,1.3,0.6,1.7c1.2,0.5,2.4,1.1,3.7,1.5c0.6,0.2,0.8,0.6,0.9,1.2c0.3,1.4,0.1,2.8-0.3,4.1c-0.2,1-0.7,1.4-1.8,1.6
				c-0.3,0-0.6,0.2-0.9,0.4c-0.6,0.4-1.1,1.1-1.7,1.4c-0.3,0.1-0.5,0.2-0.8,0.4c2.2,1,4.4,2,6.7,3.1c1.2,0.6,2.2,1.4,3.1,2.3
				l0.6,0.6v3.9c0.1,0,0.3,0,0.4,0c0,0,0,0,0.1,0c7.8,0,15.5,0,23.3,0C450.2,288.3,447.8,286,444.3,284.7z"/>
		</g>
	</g>
	<g class="st2">
		<g>
			<path class="st5" d="M646.7,287.3c-4.8-2.5-9.8-4.5-14.9-6.5c-0.4-0.1-0.8-0.4-1-0.8c-0.4-0.9-0.7-1.9-1-2.8
				c-0.2-0.6-0.4-1.2-1-1.5c-0.2-0.1-0.3-0.4-0.3-0.7c0-2.2-0.5-4.6,1.2-6.5c0.1-0.1,0.1-0.1,0.1-0.2c0.9-1.9,1-4.2,2.3-6
				c0,0,0-0.1,0-0.2c0.1-1.4,0.3-2.8,0.4-4.1c0-0.2-0.1-0.5-0.3-0.5c-0.7-0.2-0.6-0.8-0.6-1.3c0-2.7,0-5.4,0-8.1c0-1.6-0.5-3-1.6-4
				c-1.3-1.2-2.7-2.4-4.1-3.6c-0.7-0.6-0.7-1-0.1-1.6c0.3-0.3,0.6-0.5,1-0.7c-0.1-0.1-0.1-0.2-0.2-0.3c-0.4,0-0.8-0.1-1.3,0
				c-1.5,0.2-3.1,0.5-4.6,0.8c-2.9,0.7-5.7,1.6-8,3.5c-1.6,1.3-2.9,2.9-3,5c-0.1,1.1-0.1,2.3-0.1,3.4c0,1.9,0,3.7,0,5.6
				c0,0.3-0.2,0.8-0.4,0.9c-0.8,0.2-0.8,0.7-0.7,1.3c0.1,0.4,0,0.9,0.1,1.3c0.3,1.2,0.5,2.3,0.9,3.5c0.3,0.9,0.7,1.7,0.9,2.5
				c0.3,1.7,0.9,3.2,2.1,4.5c0.2,0.2,0.3,0.6,0.3,0.9c-0.1,1.3-0.2,2.7-0.4,4c0,0.3-0.3,0.6-0.5,0.7c-0.9,0.2-1,0.9-1.2,1.6
				c-0.3,0.9-0.6,1.8-0.9,2.7c-0.1,0.3-0.4,0.6-0.7,0.7c-1.6,0.7-3.2,1.3-4.8,2c-1.7,0.7-3.4,1.4-5,2.2c-1.7,0.8-3.3,1.7-5,2.6
				c-1,0.5-1.9,1.1-2.7,1.8v2.9c19.3,0,38.5,0,57.8,0v-3C648.5,288.4,647.7,287.8,646.7,287.3z"/>
			<path class="st5" d="M668.7,284.7c-2.3-0.9-4.6-1.8-6.8-2.9c-0.6-0.3-1.1-0.9-1.7-1.4c-0.3-0.2-0.6-0.4-0.9-0.4
				c-1-0.2-1.5-0.5-1.7-1.6c-0.3-1.3-0.6-2.7-0.3-4.1c0.1-0.6,0.3-1,0.9-1.2c1.2-0.5,2.5-1,3.7-1.5c0.9-0.4,1-0.7,0.6-1.7
				c-1.1-3-1.8-6-2.1-9.2c-0.2-2-0.1-4.1-0.6-6h-0.1c0-0.2-0.1-0.4-0.1-0.5c-0.9-3.5-4.6-5.4-7.8-5.6c0,0-0.1,0-0.1,0
				c-0.2,0-0.5,0-0.7,0c-1.3,0.2-2.4,1-3.7,1.4c-1.6,0.5-2.6,2-3.3,3.6c-0.9,2.3-0.7,4.8-0.9,7.2c-0.3,3.2-1,6.2-2.1,9.2
				c-0.3,0.9-0.3,1.3,0.6,1.7c1.2,0.5,2.4,1.1,3.7,1.5c0.6,0.2,0.8,0.6,0.9,1.2c0.3,1.4,0.1,2.8-0.3,4.1c-0.2,1-0.7,1.4-1.8,1.6
				c-0.3,0-0.6,0.2-0.9,0.4c-0.6,0.4-1.1,1.1-1.7,1.4c-0.3,0.1-0.5,0.2-0.8,0.4c2.2,1,4.4,2,6.7,3.1c1.2,0.6,2.2,1.4,3.1,2.3
				l0.6,0.6v3.9c0.1,0,0.3,0,0.4,0c0,0,0,0,0.1,0c7.8,0,15.5,0,23.3,0C674.6,288.3,672.3,286,668.7,284.7z"/>
		</g>
	</g>
	<path class="st6" d="M761.4,169.1h-809c-6.6,0-12-5.4-12-12V86.5c0-6.6,5.4-12,12-12h809c6.6,0,12,5.4,12,12v70.7
		C773.4,163.7,768,169.1,761.4,169.1z"/>
</g>
<g id="Layer_2">
	<rect x="21.3" y="171.3" class="st7" width="669.1" height="266"/>
	<rect x="21.3" y="22.5" class="st8" width="669.1" height="148.8"/>
	<rect x="399.9" y="78.5" class="st9" width="192.6" height="45.7"/>
	<g>
		<g>
			<path class="st10" d="M262.2,345.4c-13.6-7-27.8-12.8-42.1-18.3c-1.1-0.4-2.3-1.2-2.8-2.2c-1.2-2.6-2-5.3-2.8-8
				c-0.5-1.7-1-3.4-2.9-4.2c-0.5-0.2-1-1.2-1-1.9c0.1-6.3-1.3-12.9,3.3-18.3c0.1-0.2,0.2-0.4,0.3-0.6c2.5-5.5,3-11.8,6.5-16.9
				c0.1-0.1,0.1-0.3,0.1-0.4c0.4-3.9,0.8-7.8,1.2-11.7c0-0.5-0.4-1.3-0.8-1.5c-1.9-0.7-1.8-2.2-1.8-3.8c0-7.6,0-15.2,0-22.8
				c0-4.4-1.3-8.4-4.6-11.4c-3.8-3.4-7.7-6.7-11.6-10.1c-1.9-1.6-2.1-2.8-0.3-4.6c0.8-0.8,1.8-1.3,2.7-2c-0.2-0.3-0.4-0.6-0.6-0.9
				c-1.2,0-2.4-0.2-3.5,0c-4.3,0.7-8.7,1.3-12.9,2.3c-8.1,1.9-16,4.5-22.6,9.9c-4.5,3.7-8.1,8-8.6,14.2c-0.2,3.2-0.2,6.4-0.2,9.6
				c0,5.2,0,10.5-0.1,15.7c0,0.9-0.5,2.2-1.1,2.4c-2.1,0.7-2.2,2-1.9,3.8c0.2,1.2,0,2.5,0.3,3.7c0.7,3.3,1.5,6.5,2.5,9.8
				c0.7,2.4,2.1,4.7,2.4,7.1c0.8,4.9,2.5,9.1,5.8,12.8c0.5,0.6,1,1.6,0.9,2.4c-0.2,3.8-0.6,7.5-1.1,11.2c-0.1,0.7-0.9,1.8-1.5,1.9
				c-2.5,0.5-2.9,2.4-3.5,4.4c-0.8,2.6-1.6,5.1-2.6,7.6c-0.3,0.8-1.1,1.6-1.8,1.9c-4.4,1.9-8.9,3.7-13.4,5.6
				c-4.7,2-9.5,3.9-14.2,6.1c-4.8,2.3-9.4,4.9-14.1,7.4c-2.7,1.5-5.3,3.1-7.5,5.1v8.2c54.3,0,108.7,0,163,0v-8.5
				C267.3,348.5,264.9,346.8,262.2,345.4z"/>
			<path class="st10" d="M324.3,338.1c-6.5-2.4-12.9-5.2-19.3-8.1c-1.8-0.8-3.1-2.6-4.8-3.9c-0.7-0.6-1.6-1.1-2.5-1.2
				c-2.9-0.5-4.3-1.5-4.9-4.4c-0.9-3.8-1.6-7.6-0.8-11.6c0.3-1.7,1-2.8,2.7-3.5c3.5-1.4,6.9-2.9,10.4-4.3c2.6-1.1,2.7-2,1.8-4.7
				c-3-8.4-5.2-17-5.9-26c-0.4-5.7-0.3-11.5-1.7-17.1h-0.2c-0.1-0.5-0.2-1-0.3-1.5c-2.5-9.8-13.1-15.2-21.9-15.7c-0.1,0-0.1,0-0.2,0
				c-0.7,0-1.3,0.1-2,0.1c-3.7,0.5-6.8,2.9-10.3,3.9c-4.6,1.4-7.4,5.6-9.2,10.2c-2.4,6.5-2,13.4-2.5,20.2c-0.7,9-2.9,17.5-5.9,26
				c-0.9,2.7-0.8,3.6,1.8,4.7c3.4,1.5,6.9,3,10.4,4.3c1.7,0.7,2.3,1.8,2.7,3.5c0.8,4,0.1,7.8-0.8,11.6c-0.7,2.9-2,4-4.9,4.4
				c-0.9,0.1-1.7,0.7-2.5,1.2c-1.6,1.3-3,3.1-4.8,3.9c-0.8,0.3-1.5,0.7-2.3,1c6.2,2.7,12.5,5.6,18.8,8.8c3.3,1.7,6.3,3.9,8.7,6.4
				l1.8,1.8v11.1c0.4,0,0.8,0,1.2,0c0,0,0.1,0,0.1,0c21.9,0,43.8,0,65.7,0C340.9,348.2,334.3,341.8,324.3,338.1z"/>
		</g>
	</g>
	<g>
		<g>
			<path d="M160.7,120.3c-6.3-3.2-12.7-5.9-19.3-8.4c-0.5-0.2-1.1-0.6-1.3-1c-0.5-1.2-0.9-2.4-1.3-3.7c-0.2-0.8-0.5-1.5-1.3-1.9
				c-0.2-0.1-0.4-0.6-0.4-0.9c0-2.9-0.6-5.9,1.5-8.4c0.1-0.1,0.1-0.2,0.1-0.3c1.1-2.5,1.4-5.4,3-7.7c0-0.1,0.1-0.1,0.1-0.2
				c0.2-1.8,0.4-3.6,0.5-5.4c0-0.2-0.2-0.6-0.4-0.7c-0.9-0.3-0.8-1-0.8-1.7c0-3.5,0-7,0-10.5c0-2-0.6-3.8-2.1-5.2
				c-1.7-1.6-3.5-3.1-5.3-4.6c-0.9-0.7-0.9-1.3-0.1-2.1c0.4-0.4,0.8-0.6,1.2-0.9c-0.1-0.1-0.2-0.3-0.3-0.4c-0.5,0-1.1-0.1-1.6,0
				c-2,0.3-4,0.6-5.9,1.1c-3.7,0.9-7.3,2-10.4,4.5c-2.1,1.7-3.7,3.7-3.9,6.5c-0.1,1.5-0.1,2.9-0.1,4.4c0,2.4,0,4.8,0,7.2
				c0,0.4-0.2,1-0.5,1.1c-1,0.3-1,0.9-0.9,1.7c0.1,0.6,0,1.1,0.1,1.7c0.3,1.5,0.7,3,1.1,4.5c0.3,1.1,0.9,2.1,1.1,3.3
				c0.3,2.2,1.2,4.2,2.7,5.9c0.2,0.3,0.4,0.8,0.4,1.1c-0.1,1.7-0.3,3.4-0.5,5.1c0,0.3-0.4,0.8-0.7,0.9c-1.1,0.2-1.3,1.1-1.6,2
				c-0.4,1.2-0.7,2.3-1.2,3.5c-0.1,0.3-0.5,0.7-0.8,0.9c-2,0.9-4.1,1.7-6.1,2.6c-2.2,0.9-4.4,1.8-6.5,2.8c-2.2,1-4.3,2.2-6.5,3.4
				c-1.3,0.7-2.4,1.4-3.4,2.4v3.8c24.9,0,49.8,0,74.7,0v-3.9C163,121.7,161.9,120.9,160.7,120.3z"/>
			<path d="M189.1,116.9c-3-1.1-5.9-2.4-8.8-3.7c-0.8-0.4-1.4-1.2-2.2-1.8c-0.3-0.3-0.7-0.5-1.1-0.5c-1.3-0.2-2-0.7-2.3-2
				c-0.4-1.7-0.7-3.5-0.4-5.3c0.2-0.8,0.4-1.3,1.2-1.6c1.6-0.6,3.2-1.3,4.8-2c1.2-0.5,1.3-0.9,0.8-2.1c-1.4-3.9-2.4-7.8-2.7-11.9
				c-0.2-2.6-0.1-5.3-0.8-7.8h-0.1c-0.1-0.2-0.1-0.5-0.1-0.7c-1.1-4.5-6-7-10.1-7.2c0,0-0.1,0-0.1,0c-0.3,0-0.6,0-0.9,0
				c-1.7,0.2-3.1,1.3-4.7,1.8c-2.1,0.6-3.4,2.6-4.2,4.7c-1.1,3-0.9,6.2-1.2,9.3c-0.3,4.1-1.3,8-2.7,11.9c-0.4,1.2-0.4,1.6,0.8,2.1
				c1.6,0.7,3.2,1.4,4.8,2c0.8,0.3,1.1,0.8,1.2,1.6c0.4,1.8,0.1,3.6-0.4,5.3c-0.3,1.3-0.9,1.8-2.3,2c-0.4,0.1-0.8,0.3-1.1,0.5
				c-0.8,0.6-1.4,1.4-2.2,1.8c-0.3,0.2-0.7,0.3-1,0.5c2.8,1.2,5.7,2.6,8.6,4c1.5,0.8,2.9,1.8,4,2.9l0.8,0.8v5.1c0.2,0,0.4,0,0.5,0
				c0,0,0,0,0.1,0c10,0,20.1,0,30.1,0C196.8,121.6,193.7,118.6,189.1,116.9z"/>
		</g>
	</g>
	<g>
		<g>
			<path d="M325,120.3c-6.3-3.2-12.7-5.9-19.3-8.4c-0.5-0.2-1.1-0.6-1.3-1c-0.5-1.2-0.9-2.4-1.3-3.7c-0.2-0.8-0.5-1.5-1.3-1.9
				c-0.2-0.1-0.4-0.6-0.4-0.9c0-2.9-0.6-5.9,1.5-8.4c0.1-0.1,0.1-0.2,0.1-0.3c1.1-2.5,1.4-5.4,3-7.7c0-0.1,0.1-0.1,0.1-0.2
				c0.2-1.8,0.4-3.6,0.5-5.4c0-0.2-0.2-0.6-0.4-0.7c-0.9-0.3-0.8-1-0.8-1.7c0-3.5,0-7,0-10.5c0-2-0.6-3.8-2.1-5.2
				c-1.7-1.6-3.5-3.1-5.3-4.6c-0.9-0.7-0.9-1.3-0.1-2.1c0.4-0.4,0.8-0.6,1.2-0.9c-0.1-0.1-0.2-0.3-0.3-0.4c-0.5,0-1.1-0.1-1.6,0
				c-2,0.3-4,0.6-5.9,1.1c-3.7,0.9-7.3,2-10.4,4.5c-2.1,1.7-3.7,3.7-3.9,6.5c-0.1,1.5-0.1,2.9-0.1,4.4c0,2.4,0,4.8,0,7.2
				c0,0.4-0.2,1-0.5,1.1c-1,0.3-1,0.9-0.9,1.7c0.1,0.6,0,1.1,0.1,1.7c0.3,1.5,0.7,3,1.1,4.5c0.3,1.1,0.9,2.1,1.1,3.3
				c0.3,2.2,1.2,4.2,2.7,5.9c0.2,0.3,0.4,0.8,0.4,1.1c-0.1,1.7-0.3,3.4-0.5,5.1c0,0.3-0.4,0.8-0.7,0.9c-1.1,0.2-1.3,1.1-1.6,2
				c-0.4,1.2-0.7,2.3-1.2,3.5c-0.1,0.3-0.5,0.7-0.8,0.9c-2,0.9-4.1,1.7-6.1,2.6c-2.2,0.9-4.4,1.8-6.5,2.8c-2.2,1-4.3,2.2-6.5,3.4
				c-1.3,0.7-2.4,1.4-3.4,2.4v3.8c24.9,0,49.8,0,74.7,0v-3.9C327.4,121.7,326.3,120.9,325,120.3z"/>
			<path d="M353.5,116.9c-3-1.1-5.9-2.4-8.8-3.7c-0.8-0.4-1.4-1.2-2.2-1.8c-0.3-0.3-0.7-0.5-1.1-0.5c-1.3-0.2-2-0.7-2.3-2
				c-0.4-1.7-0.7-3.5-0.4-5.3c0.2-0.8,0.4-1.3,1.2-1.6c1.6-0.6,3.2-1.3,4.8-2c1.2-0.5,1.3-0.9,0.8-2.1c-1.4-3.9-2.4-7.8-2.7-11.9
				c-0.2-2.6-0.1-5.3-0.8-7.8h-0.1c-0.1-0.2-0.1-0.5-0.1-0.7c-1.1-4.5-6-7-10.1-7.2c0,0-0.1,0-0.1,0c-0.3,0-0.6,0-0.9,0
				c-1.7,0.2-3.1,1.3-4.7,1.8c-2.1,0.6-3.4,2.6-4.2,4.7c-1.1,3-0.9,6.2-1.2,9.3c-0.3,4.1-1.3,8-2.7,11.9c-0.4,1.2-0.4,1.6,0.8,2.1
				c1.6,0.7,3.2,1.4,4.8,2c0.8,0.3,1.1,0.8,1.2,1.6c0.4,1.8,0.1,3.6-0.4,5.3c-0.3,1.3-0.9,1.8-2.3,2c-0.4,0.1-0.8,0.3-1.1,0.5
				c-0.8,0.6-1.4,1.4-2.2,1.8c-0.3,0.2-0.7,0.3-1,0.5c2.8,1.2,5.7,2.6,8.6,4c1.5,0.8,2.9,1.8,4,2.9l0.8,0.8v5.1c0.2,0,0.4,0,0.5,0
				c0,0,0,0,0.1,0c10,0,20.1,0,30.1,0C361.1,121.6,358.1,118.6,353.5,116.9z"/>
		</g>
	</g>
	<text transform="matrix(1 0 0 1 468.2551 110.813)" class="st3 st4">App</text>
	<rect x="393.5" y="315.8" class="st11" width="192.6" height="45.7"/>
	<text transform="matrix(1 0 0 1 414.8636 348.0471)" class="st3 st4">Framework</text>
</g>
</svg>
