<?xml version="1.0" encoding="utf-8"?>
<!-- Generator: Adobe Illustrator 19.2.0, SVG Export Plug-In . SVG Version: 6.00 Build 0)  -->
<svg version="1.1" xmlns="http://www.w3.org/2000/svg" xmlns:xlink="http://www.w3.org/1999/xlink" x="0px" y="0px" width="894px"
	 height="675px" viewBox="0 0 894 675" style="enable-background:new 0 0 894 675;" xml:space="preserve">
<style type="text/css">
	.st0{display:none;}
	.st1{display:inline;fill:none;stroke:#FFDEED;stroke-width:2;stroke-miterlimit:10;}
	.st2{display:inline;}
	.st3{font-family:'MyriadPro-Regular';}
	.st4{font-size:32px;}
	.st5{fill:#010002;}
	.st6{display:inline;fill:none;stroke:#B6275E;stroke-width:7;stroke-miterlimit:10;}
	.st7{fill:#B6275E;}
	.st8{fill:none;stroke:#D3D3D3;stroke-width:2;stroke-miterlimit:10;}
	.st9{fill:#D3D3D3;}
</style>
<g id="Layer_1" class="st0">
	<line class="st1" x1="398.6" y1="112.9" x2="398.6" y2="423.6"/>
	<line class="st1" x1="632.7" y1="112.9" x2="632.7" y2="423.6"/>
	<text transform="matrix(1 0 0 1 230.5531 128.8722)" class="st2 st3 st4">Team A</text>
	<text transform="matrix(1 0 0 1 461.4042 128.8722)" class="st2 st3 st4">Team B</text>
	<text transform="matrix(1 0 0 1 692.2552 128.8722)" class="st2 st3 st4">Team C</text>
	<text transform="matrix(1 0 0 1 59.2766 261.8509)" class="st2 st3 st4">Frontend</text>
	<g class="st2">
		<g>
			<path class="st5" d="M300.7,274.5c-4.8-2.5-9.8-4.5-14.9-6.5c-0.4-0.1-0.8-0.4-1-0.8c-0.4-0.9-0.7-1.9-1-2.8
				c-0.2-0.6-0.4-1.2-1-1.5c-0.2-0.1-0.3-0.4-0.3-0.7c0-2.2-0.5-4.6,1.2-6.5c0.1-0.1,0.1-0.1,0.1-0.2c0.9-1.9,1-4.2,2.3-6
				c0,0,0-0.1,0-0.2c0.1-1.4,0.3-2.8,0.4-4.1c0-0.2-0.1-0.5-0.3-0.5c-0.7-0.2-0.6-0.8-0.6-1.3c0-2.7,0-5.4,0-8.1c0-1.6-0.5-3-1.6-4
				c-1.3-1.2-2.7-2.4-4.1-3.6c-0.7-0.6-0.7-1-0.1-1.6c0.3-0.3,0.6-0.5,1-0.7c-0.1-0.1-0.1-0.2-0.2-0.3c-0.4,0-0.8-0.1-1.3,0
				c-1.5,0.2-3.1,0.5-4.6,0.8c-2.9,0.7-5.7,1.6-8,3.5c-1.6,1.3-2.9,2.9-3,5c-0.1,1.1-0.1,2.3-0.1,3.4c0,1.9,0,3.7,0,5.6
				c0,0.3-0.2,0.8-0.4,0.9c-0.8,0.2-0.8,0.7-0.7,1.3c0.1,0.4,0,0.9,0.1,1.3c0.3,1.2,0.5,2.3,0.9,3.5c0.3,0.9,0.7,1.7,0.9,2.5
				c0.3,1.7,0.9,3.2,2.1,4.5c0.2,0.2,0.3,0.6,0.3,0.9c-0.1,1.3-0.2,2.7-0.4,4c0,0.3-0.3,0.6-0.5,0.7c-0.9,0.2-1,0.9-1.2,1.6
				c-0.3,0.9-0.6,1.8-0.9,2.7c-0.1,0.3-0.4,0.6-0.7,0.7c-1.6,0.7-3.2,1.3-4.8,2c-1.7,0.7-3.4,1.4-5,2.2c-1.7,0.8-3.3,1.7-5,2.6
				c-1,0.5-1.9,1.1-2.7,1.8v2.9c19.3,0,38.5,0,57.8,0v-3C302.5,275.6,301.6,275,300.7,274.5z"/>
			<path class="st5" d="M322.7,271.9c-2.3-0.9-4.6-1.8-6.8-2.9c-0.6-0.3-1.1-0.9-1.7-1.4c-0.3-0.2-0.6-0.4-0.9-0.4
				c-1-0.2-1.5-0.5-1.7-1.6c-0.3-1.3-0.6-2.7-0.3-4.1c0.1-0.6,0.3-1,0.9-1.2c1.2-0.5,2.5-1,3.7-1.5c0.9-0.4,1-0.7,0.6-1.7
				c-1.1-3-1.8-6-2.1-9.2c-0.2-2-0.1-4.1-0.6-6h-0.1c0-0.2-0.1-0.4-0.1-0.5c-0.9-3.5-4.6-5.4-7.8-5.6c0,0-0.1,0-0.1,0
				c-0.2,0-0.5,0-0.7,0c-1.3,0.2-2.4,1-3.7,1.4c-1.6,0.5-2.6,2-3.3,3.6c-0.9,2.3-0.7,4.8-0.9,7.2c-0.3,3.2-1,6.2-2.1,9.2
				c-0.3,0.9-0.3,1.3,0.6,1.7c1.2,0.5,2.4,1.1,3.7,1.5c0.6,0.2,0.8,0.6,0.9,1.2c0.3,1.4,0.1,2.8-0.3,4.1c-0.2,1-0.7,1.4-1.8,1.6
				c-0.3,0-0.6,0.2-0.9,0.4c-0.6,0.4-1.1,1.1-1.7,1.4c-0.3,0.1-0.5,0.2-0.8,0.4c2.2,1,4.4,2,6.7,3.1c1.2,0.6,2.2,1.4,3.1,2.3
				l0.6,0.6v3.9c0.1,0,0.3,0,0.4,0c0,0,0,0,0.1,0c7.8,0,15.5,0,23.3,0C328.6,275.5,326.2,273.3,322.7,271.9z"/>
		</g>
	</g>
	<g class="st2">
		<g>
			<path class="st5" d="M525.2,274.5c-4.8-2.5-9.8-4.5-14.9-6.5c-0.4-0.1-0.8-0.4-1-0.8c-0.4-0.9-0.7-1.9-1-2.8
				c-0.2-0.6-0.4-1.2-1-1.5c-0.2-0.1-0.3-0.4-0.3-0.7c0-2.2-0.5-4.6,1.2-6.5c0.1-0.1,0.1-0.1,0.1-0.2c0.9-1.9,1-4.2,2.3-6
				c0,0,0-0.1,0-0.2c0.1-1.4,0.3-2.8,0.4-4.1c0-0.2-0.1-0.5-0.3-0.5c-0.7-0.2-0.6-0.8-0.6-1.3c0-2.7,0-5.4,0-8.1c0-1.6-0.5-3-1.6-4
				c-1.3-1.2-2.7-2.4-4.1-3.6c-0.7-0.6-0.7-1-0.1-1.6c0.3-0.3,0.6-0.5,1-0.7c-0.1-0.1-0.1-0.2-0.2-0.3c-0.4,0-0.8-0.1-1.3,0
				c-1.5,0.2-3.1,0.5-4.6,0.8c-2.9,0.7-5.7,1.6-8,3.5c-1.6,1.3-2.9,2.9-3,5c-0.1,1.1-0.1,2.3-0.1,3.4c0,1.9,0,3.7,0,5.6
				c0,0.3-0.2,0.8-0.4,0.9c-0.8,0.2-0.8,0.7-0.7,1.3c0.1,0.4,0,0.9,0.1,1.3c0.3,1.2,0.5,2.3,0.9,3.5c0.3,0.9,0.7,1.7,0.9,2.5
				c0.3,1.7,0.9,3.2,2.1,4.5c0.2,0.2,0.3,0.6,0.3,0.9c-0.1,1.3-0.2,2.7-0.4,4c0,0.3-0.3,0.6-0.5,0.7c-0.9,0.2-1,0.9-1.2,1.6
				c-0.3,0.9-0.6,1.8-0.9,2.7c-0.1,0.3-0.4,0.6-0.7,0.7c-1.6,0.7-3.2,1.3-4.8,2c-1.7,0.7-3.4,1.4-5,2.2c-1.7,0.8-3.3,1.7-5,2.6
				c-1,0.5-1.9,1.1-2.7,1.8v2.9c19.3,0,38.5,0,57.8,0v-3C527,275.6,526.1,275,525.2,274.5z"/>
			<path class="st5" d="M547.2,271.9c-2.3-0.9-4.6-1.8-6.8-2.9c-0.6-0.3-1.1-0.9-1.7-1.4c-0.3-0.2-0.6-0.4-0.9-0.4
				c-1-0.2-1.5-0.5-1.7-1.6c-0.3-1.3-0.6-2.7-0.3-4.1c0.1-0.6,0.3-1,0.9-1.2c1.2-0.5,2.5-1,3.7-1.5c0.9-0.4,1-0.7,0.6-1.7
				c-1.1-3-1.8-6-2.1-9.2c-0.2-2-0.1-4.1-0.6-6h-0.1c0-0.2-0.1-0.4-0.1-0.5c-0.9-3.5-4.6-5.4-7.8-5.6c0,0-0.1,0-0.1,0
				c-0.2,0-0.5,0-0.7,0c-1.3,0.2-2.4,1-3.7,1.4c-1.6,0.5-2.6,2-3.3,3.6c-0.9,2.3-0.7,4.8-0.9,7.2c-0.3,3.2-1,6.2-2.1,9.2
				c-0.3,0.9-0.3,1.3,0.6,1.7c1.2,0.5,2.4,1.1,3.7,1.5c0.6,0.2,0.8,0.6,0.9,1.2c0.3,1.4,0.1,2.8-0.3,4.1c-0.2,1-0.7,1.4-1.8,1.6
				c-0.3,0-0.6,0.2-0.9,0.4c-0.6,0.4-1.1,1.1-1.7,1.4c-0.3,0.1-0.5,0.2-0.8,0.4c2.2,1,4.4,2,6.7,3.1c1.2,0.6,2.2,1.4,3.1,2.3
				l0.6,0.6v3.9c0.1,0,0.3,0,0.4,0c0,0,0,0,0.1,0c7.8,0,15.5,0,23.3,0C553.1,275.5,550.7,273.3,547.2,271.9z"/>
		</g>
	</g>
	<g class="st2">
		<g>
			<path class="st5" d="M749.6,274.5c-4.8-2.5-9.8-4.5-14.9-6.5c-0.4-0.1-0.8-0.4-1-0.8c-0.4-0.9-0.7-1.9-1-2.8
				c-0.2-0.6-0.4-1.2-1-1.5c-0.2-0.1-0.3-0.4-0.3-0.7c0-2.2-0.5-4.6,1.2-6.5c0.1-0.1,0.1-0.1,0.1-0.2c0.9-1.9,1-4.2,2.3-6
				c0,0,0-0.1,0-0.2c0.1-1.4,0.3-2.8,0.4-4.1c0-0.2-0.1-0.5-0.3-0.5c-0.7-0.2-0.6-0.8-0.6-1.3c0-2.7,0-5.4,0-8.1c0-1.6-0.5-3-1.6-4
				c-1.3-1.2-2.7-2.4-4.1-3.6c-0.7-0.6-0.7-1-0.1-1.6c0.3-0.3,0.6-0.5,1-0.7c-0.1-0.1-0.1-0.2-0.2-0.3c-0.4,0-0.8-0.1-1.3,0
				c-1.5,0.2-3.1,0.5-4.6,0.8c-2.9,0.7-5.7,1.6-8,3.5c-1.6,1.3-2.9,2.9-3,5c-0.1,1.1-0.1,2.3-0.1,3.4c0,1.9,0,3.7,0,5.6
				c0,0.3-0.2,0.8-0.4,0.9c-0.8,0.2-0.8,0.7-0.7,1.3c0.1,0.4,0,0.9,0.1,1.3c0.3,1.2,0.5,2.3,0.9,3.5c0.3,0.9,0.7,1.7,0.9,2.5
				c0.3,1.7,0.9,3.2,2.1,4.5c0.2,0.2,0.3,0.6,0.3,0.9c-0.1,1.3-0.2,2.7-0.4,4c0,0.3-0.3,0.6-0.5,0.7c-0.9,0.2-1,0.9-1.2,1.6
				c-0.3,0.9-0.6,1.8-0.9,2.7c-0.1,0.3-0.4,0.6-0.7,0.7c-1.6,0.7-3.2,1.3-4.8,2c-1.7,0.7-3.4,1.4-5,2.2c-1.7,0.8-3.3,1.7-5,2.6
				c-1,0.5-1.9,1.1-2.7,1.8v2.9c19.3,0,38.5,0,57.8,0v-3C751.4,275.6,750.6,275,749.6,274.5z"/>
			<path class="st5" d="M771.6,271.9c-2.3-0.9-4.6-1.8-6.8-2.9c-0.6-0.3-1.1-0.9-1.7-1.4c-0.3-0.2-0.6-0.4-0.9-0.4
				c-1-0.2-1.5-0.5-1.7-1.6c-0.3-1.3-0.6-2.7-0.3-4.1c0.1-0.6,0.3-1,0.9-1.2c1.2-0.5,2.5-1,3.7-1.5c0.9-0.4,1-0.7,0.6-1.7
				c-1.1-3-1.8-6-2.1-9.2c-0.2-2-0.1-4.1-0.6-6h-0.1c0-0.2-0.1-0.4-0.1-0.5c-0.9-3.5-4.6-5.4-7.8-5.6c0,0-0.1,0-0.1,0
				c-0.2,0-0.5,0-0.7,0c-1.3,0.2-2.4,1-3.7,1.4c-1.6,0.5-2.6,2-3.3,3.6c-0.9,2.3-0.7,4.8-0.9,7.2c-0.3,3.2-1,6.2-2.1,9.2
				c-0.3,0.9-0.3,1.3,0.6,1.7c1.2,0.5,2.4,1.1,3.7,1.5c0.6,0.2,0.8,0.6,0.9,1.2c0.3,1.4,0.1,2.8-0.3,4.1c-0.2,1-0.7,1.4-1.8,1.6
				c-0.3,0-0.6,0.2-0.9,0.4c-0.6,0.4-1.1,1.1-1.7,1.4c-0.3,0.1-0.5,0.2-0.8,0.4c2.2,1,4.4,2,6.7,3.1c1.2,0.6,2.2,1.4,3.1,2.3
				l0.6,0.6v3.9c0.1,0,0.3,0,0.4,0c0,0,0,0,0.1,0c7.8,0,15.5,0,23.3,0C777.5,275.5,775.2,273.3,771.6,271.9z"/>
		</g>
	</g>
	<text transform="matrix(1 0 0 1 59.2766 420.3615)" class="st2 st3 st4">Backend</text>
	<g class="st2">
		<g>
			<path class="st5" d="M300.7,420.4c-4.8-2.5-9.8-4.5-14.9-6.5c-0.4-0.1-0.8-0.4-1-0.8c-0.4-0.9-0.7-1.9-1-2.8
				c-0.2-0.6-0.4-1.2-1-1.5c-0.2-0.1-0.3-0.4-0.3-0.7c0-2.2-0.5-4.6,1.2-6.5c0.1-0.1,0.1-0.1,0.1-0.2c0.9-1.9,1-4.2,2.3-6
				c0,0,0-0.1,0-0.2c0.1-1.4,0.3-2.8,0.4-4.1c0-0.2-0.1-0.5-0.3-0.5c-0.7-0.2-0.6-0.8-0.6-1.3c0-2.7,0-5.4,0-8.1c0-1.6-0.5-3-1.6-4
				c-1.3-1.2-2.7-2.4-4.1-3.6c-0.7-0.6-0.7-1-0.1-1.6c0.3-0.3,0.6-0.5,1-0.7c-0.1-0.1-0.1-0.2-0.2-0.3c-0.4,0-0.8-0.1-1.3,0
				c-1.5,0.2-3.1,0.5-4.6,0.8c-2.9,0.7-5.7,1.6-8,3.5c-1.6,1.3-2.9,2.9-3,5c-0.1,1.1-0.1,2.3-0.1,3.4c0,1.9,0,3.7,0,5.6
				c0,0.3-0.2,0.8-0.4,0.9c-0.8,0.2-0.8,0.7-0.7,1.3c0.1,0.4,0,0.9,0.1,1.3c0.3,1.2,0.5,2.3,0.9,3.5c0.3,0.9,0.7,1.7,0.9,2.5
				c0.3,1.7,0.9,3.2,2.1,4.5c0.2,0.2,0.3,0.6,0.3,0.9c-0.1,1.3-0.2,2.7-0.4,4c0,0.3-0.3,0.6-0.5,0.7c-0.9,0.2-1,0.9-1.2,1.6
				c-0.3,0.9-0.6,1.8-0.9,2.7c-0.1,0.3-0.4,0.6-0.7,0.7c-1.6,0.7-3.2,1.3-4.8,2c-1.7,0.7-3.4,1.4-5,2.2c-1.7,0.8-3.3,1.7-5,2.6
				c-1,0.5-1.9,1.1-2.7,1.8v2.9c19.3,0,38.5,0,57.8,0v-3C302.5,421.5,301.6,420.9,300.7,420.4z"/>
			<path class="st5" d="M322.7,417.8c-2.3-0.9-4.6-1.8-6.8-2.9c-0.6-0.3-1.1-0.9-1.7-1.4c-0.3-0.2-0.6-0.4-0.9-0.4
				c-1-0.2-1.5-0.5-1.7-1.6c-0.3-1.3-0.6-2.7-0.3-4.1c0.1-0.6,0.3-1,0.9-1.2c1.2-0.5,2.5-1,3.7-1.5c0.9-0.4,1-0.7,0.6-1.7
				c-1.1-3-1.8-6-2.1-9.2c-0.2-2-0.1-4.1-0.6-6h-0.1c0-0.2-0.1-0.4-0.1-0.5c-0.9-3.5-4.6-5.4-7.8-5.6c0,0-0.1,0-0.1,0
				c-0.2,0-0.5,0-0.7,0c-1.3,0.2-2.4,1-3.7,1.4c-1.6,0.5-2.6,2-3.3,3.6c-0.9,2.3-0.7,4.8-0.9,7.2c-0.3,3.2-1,6.2-2.1,9.2
				c-0.3,0.9-0.3,1.3,0.6,1.7c1.2,0.5,2.4,1.1,3.7,1.5c0.6,0.2,0.8,0.6,0.9,1.2c0.3,1.4,0.1,2.8-0.3,4.1c-0.2,1-0.7,1.4-1.8,1.6
				c-0.3,0-0.6,0.2-0.9,0.4c-0.6,0.4-1.1,1.1-1.7,1.4c-0.3,0.1-0.5,0.2-0.8,0.4c2.2,1,4.4,2,6.7,3.1c1.2,0.6,2.2,1.4,3.1,2.3
				l0.6,0.6v3.9c0.1,0,0.3,0,0.4,0c0,0,0,0,0.1,0c7.8,0,15.5,0,23.3,0C328.6,421.4,326.2,419.1,322.7,417.8z"/>
		</g>
	</g>
	<g class="st2">
		<g>
			<path class="st5" d="M525.2,420.4c-4.8-2.5-9.8-4.5-14.9-6.5c-0.4-0.1-0.8-0.4-1-0.8c-0.4-0.9-0.7-1.9-1-2.8
				c-0.2-0.6-0.4-1.2-1-1.5c-0.2-0.1-0.3-0.4-0.3-0.7c0-2.2-0.5-4.6,1.2-6.5c0.1-0.1,0.1-0.1,0.1-0.2c0.9-1.9,1-4.2,2.3-6
				c0,0,0-0.1,0-0.2c0.1-1.4,0.3-2.8,0.4-4.1c0-0.2-0.1-0.5-0.3-0.5c-0.7-0.2-0.6-0.8-0.6-1.3c0-2.7,0-5.4,0-8.1c0-1.6-0.5-3-1.6-4
				c-1.3-1.2-2.7-2.4-4.1-3.6c-0.7-0.6-0.7-1-0.1-1.6c0.3-0.3,0.6-0.5,1-0.7c-0.1-0.1-0.1-0.2-0.2-0.3c-0.4,0-0.8-0.1-1.3,0
				c-1.5,0.2-3.1,0.5-4.6,0.8c-2.9,0.7-5.7,1.6-8,3.5c-1.6,1.3-2.9,2.9-3,5c-0.1,1.1-0.1,2.3-0.1,3.4c0,1.9,0,3.7,0,5.6
				c0,0.3-0.2,0.8-0.4,0.9c-0.8,0.2-0.8,0.7-0.7,1.3c0.1,0.4,0,0.9,0.1,1.3c0.3,1.2,0.5,2.3,0.9,3.5c0.3,0.9,0.7,1.7,0.9,2.5
				c0.3,1.7,0.9,3.2,2.1,4.5c0.2,0.2,0.3,0.6,0.3,0.9c-0.1,1.3-0.2,2.7-0.4,4c0,0.3-0.3,0.6-0.5,0.7c-0.9,0.2-1,0.9-1.2,1.6
				c-0.3,0.9-0.6,1.8-0.9,2.7c-0.1,0.3-0.4,0.6-0.7,0.7c-1.6,0.7-3.2,1.3-4.8,2c-1.7,0.7-3.4,1.4-5,2.2c-1.7,0.8-3.3,1.7-5,2.6
				c-1,0.5-1.9,1.1-2.7,1.8v2.9c19.3,0,38.5,0,57.8,0v-3C527,421.5,526.1,420.9,525.2,420.4z"/>
			<path class="st5" d="M547.2,417.8c-2.3-0.9-4.6-1.8-6.8-2.9c-0.6-0.3-1.1-0.9-1.7-1.4c-0.3-0.2-0.6-0.4-0.9-0.4
				c-1-0.2-1.5-0.5-1.7-1.6c-0.3-1.3-0.6-2.7-0.3-4.1c0.1-0.6,0.3-1,0.9-1.2c1.2-0.5,2.5-1,3.7-1.5c0.9-0.4,1-0.7,0.6-1.7
				c-1.1-3-1.8-6-2.1-9.2c-0.2-2-0.1-4.1-0.6-6h-0.1c0-0.2-0.1-0.4-0.1-0.5c-0.9-3.5-4.6-5.4-7.8-5.6c0,0-0.1,0-0.1,0
				c-0.2,0-0.5,0-0.7,0c-1.3,0.2-2.4,1-3.7,1.4c-1.6,0.5-2.6,2-3.3,3.6c-0.9,2.3-0.7,4.8-0.9,7.2c-0.3,3.2-1,6.2-2.1,9.2
				c-0.3,0.9-0.3,1.3,0.6,1.7c1.2,0.5,2.4,1.1,3.7,1.5c0.6,0.2,0.8,0.6,0.9,1.2c0.3,1.4,0.1,2.8-0.3,4.1c-0.2,1-0.7,1.4-1.8,1.6
				c-0.3,0-0.6,0.2-0.9,0.4c-0.6,0.4-1.1,1.1-1.7,1.4c-0.3,0.1-0.5,0.2-0.8,0.4c2.2,1,4.4,2,6.7,3.1c1.2,0.6,2.2,1.4,3.1,2.3
				l0.6,0.6v3.9c0.1,0,0.3,0,0.4,0c0,0,0,0,0.1,0c7.8,0,15.5,0,23.3,0C553.1,421.4,550.7,419.1,547.2,417.8z"/>
		</g>
	</g>
	<g class="st2">
		<g>
			<path class="st5" d="M749.6,420.4c-4.8-2.5-9.8-4.5-14.9-6.5c-0.4-0.1-0.8-0.4-1-0.8c-0.4-0.9-0.7-1.9-1-2.8
				c-0.2-0.6-0.4-1.2-1-1.5c-0.2-0.1-0.3-0.4-0.3-0.7c0-2.2-0.5-4.6,1.2-6.5c0.1-0.1,0.1-0.1,0.1-0.2c0.9-1.9,1-4.2,2.3-6
				c0,0,0-0.1,0-0.2c0.1-1.4,0.3-2.8,0.4-4.1c0-0.2-0.1-0.5-0.3-0.5c-0.7-0.2-0.6-0.8-0.6-1.3c0-2.7,0-5.4,0-8.1c0-1.6-0.5-3-1.6-4
				c-1.3-1.2-2.7-2.4-4.1-3.6c-0.7-0.6-0.7-1-0.1-1.6c0.3-0.3,0.6-0.5,1-0.7c-0.1-0.1-0.1-0.2-0.2-0.3c-0.4,0-0.8-0.1-1.3,0
				c-1.5,0.2-3.1,0.5-4.6,0.8c-2.9,0.7-5.7,1.6-8,3.5c-1.6,1.3-2.9,2.9-3,5c-0.1,1.1-0.1,2.3-0.1,3.4c0,1.9,0,3.7,0,5.6
				c0,0.3-0.2,0.8-0.4,0.9c-0.8,0.2-0.8,0.7-0.7,1.3c0.1,0.4,0,0.9,0.1,1.3c0.3,1.2,0.5,2.3,0.9,3.5c0.3,0.9,0.7,1.7,0.9,2.5
				c0.3,1.7,0.9,3.2,2.1,4.5c0.2,0.2,0.3,0.6,0.3,0.9c-0.1,1.3-0.2,2.7-0.4,4c0,0.3-0.3,0.6-0.5,0.7c-0.9,0.2-1,0.9-1.2,1.6
				c-0.3,0.9-0.6,1.8-0.9,2.7c-0.1,0.3-0.4,0.6-0.7,0.7c-1.6,0.7-3.2,1.3-4.8,2c-1.7,0.7-3.4,1.4-5,2.2c-1.7,0.8-3.3,1.7-5,2.6
				c-1,0.5-1.9,1.1-2.7,1.8v2.9c19.3,0,38.5,0,57.8,0v-3C751.4,421.5,750.6,420.9,749.6,420.4z"/>
			<path class="st5" d="M771.6,417.8c-2.3-0.9-4.6-1.8-6.8-2.9c-0.6-0.3-1.1-0.9-1.7-1.4c-0.3-0.2-0.6-0.4-0.9-0.4
				c-1-0.2-1.5-0.5-1.7-1.6c-0.3-1.3-0.6-2.7-0.3-4.1c0.1-0.6,0.3-1,0.9-1.2c1.2-0.5,2.5-1,3.7-1.5c0.9-0.4,1-0.7,0.6-1.7
				c-1.1-3-1.8-6-2.1-9.2c-0.2-2-0.1-4.1-0.6-6h-0.1c0-0.2-0.1-0.4-0.1-0.5c-0.9-3.5-4.6-5.4-7.8-5.6c0,0-0.1,0-0.1,0
				c-0.2,0-0.5,0-0.7,0c-1.3,0.2-2.4,1-3.7,1.4c-1.6,0.5-2.6,2-3.3,3.6c-0.9,2.3-0.7,4.8-0.9,7.2c-0.3,3.2-1,6.2-2.1,9.2
				c-0.3,0.9-0.3,1.3,0.6,1.7c1.2,0.5,2.4,1.1,3.7,1.5c0.6,0.2,0.8,0.6,0.9,1.2c0.3,1.4,0.1,2.8-0.3,4.1c-0.2,1-0.7,1.4-1.8,1.6
				c-0.3,0-0.6,0.2-0.9,0.4c-0.6,0.4-1.1,1.1-1.7,1.4c-0.3,0.1-0.5,0.2-0.8,0.4c2.2,1,4.4,2,6.7,3.1c1.2,0.6,2.2,1.4,3.1,2.3
				l0.6,0.6v3.9c0.1,0,0.3,0,0.4,0c0,0,0,0,0.1,0c7.8,0,15.5,0,23.3,0C777.5,421.4,775.2,419.1,771.6,417.8z"/>
		</g>
	</g>
	<path class="st6" d="M864.3,302.3h-809c-6.6,0-12-5.4-12-12v-70.7c0-6.6,5.4-12,12-12h809c6.6,0,12,5.4,12,12v70.7
		C876.3,296.9,870.9,302.3,864.3,302.3z"/>
</g>
<g id="Layer_2">
	<g>
		<g>
			<path class="st7" d="M385.5,209.1c-13.6-7-27.8-12.8-42.1-18.3c-1.1-0.4-2.3-1.2-2.8-2.2c-1.2-2.6-2-5.3-2.8-8
				c-0.5-1.7-1-3.4-2.9-4.2c-0.5-0.2-1-1.2-1-1.9c0.1-6.3-1.3-12.9,3.3-18.3c0.1-0.2,0.2-0.4,0.3-0.6c2.5-5.5,3-11.8,6.5-16.9
				c0.1-0.1,0.1-0.3,0.1-0.4c0.4-3.9,0.8-7.8,1.2-11.7c0-0.5-0.4-1.3-0.8-1.5c-1.9-0.7-1.8-2.2-1.8-3.8c0-7.6,0-15.2,0-22.8
				c0-4.4-1.3-8.4-4.6-11.4c-3.8-3.4-7.7-6.7-11.6-10.1c-1.9-1.6-2.1-2.8-0.3-4.6c0.8-0.8,1.8-1.3,2.7-2c-0.2-0.3-0.4-0.6-0.6-0.9
				c-1.2,0-2.4-0.2-3.5,0c-4.3,0.7-8.7,1.3-12.9,2.3c-8.1,1.9-16,4.5-22.6,9.9c-4.5,3.7-8.1,8-8.6,14.2c-0.2,3.2-0.2,6.4-0.2,9.6
				c0,5.2,0,10.5-0.1,15.7c0,0.9-0.5,2.2-1.1,2.4c-2.1,0.7-2.2,2-1.9,3.8c0.2,1.2,0,2.5,0.3,3.7c0.7,3.3,1.5,6.5,2.5,9.8
				c0.7,2.4,2.1,4.7,2.4,7.1c0.8,4.9,2.5,9.1,5.8,12.8c0.5,0.6,1,1.6,0.9,2.4c-0.2,3.8-0.6,7.5-1.1,11.2c-0.1,0.7-0.9,1.8-1.5,1.9
				c-2.5,0.5-2.9,2.4-3.5,4.4c-0.8,2.6-1.6,5.1-2.6,7.6c-0.3,0.8-1.1,1.6-1.8,1.9c-4.4,1.9-8.9,3.7-13.4,5.6
				c-4.7,2-9.5,3.9-14.2,6.1c-4.8,2.3-9.4,4.9-14.1,7.4c-2.7,1.5-5.3,3.1-7.5,5.1v8.2c54.3,0,108.7,0,163,0v-8.5
				C390.6,212.2,388.2,210.5,385.5,209.1z"/>
			<path class="st7" d="M447.6,201.8c-6.5-2.4-12.9-5.2-19.3-8.1c-1.8-0.8-3.1-2.6-4.8-3.9c-0.7-0.6-1.6-1.1-2.5-1.2
				c-2.9-0.5-4.3-1.5-4.9-4.4c-0.9-3.8-1.6-7.6-0.8-11.6c0.3-1.7,1-2.8,2.7-3.5c3.5-1.4,6.9-2.9,10.4-4.3c2.6-1.1,2.7-2,1.8-4.7
				c-3-8.4-5.2-17-5.9-26c-0.4-5.7-0.3-11.5-1.7-17.1h-0.2c-0.1-0.5-0.2-1-0.3-1.5c-2.5-9.8-13.1-15.2-21.9-15.7c-0.1,0-0.1,0-0.2,0
				c-0.7,0-1.3,0.1-2,0.1c-3.7,0.5-6.8,2.9-10.3,3.9c-4.6,1.4-7.4,5.6-9.2,10.2c-2.4,6.5-2,13.4-2.5,20.2c-0.7,9-2.9,17.5-5.9,26
				c-0.9,2.7-0.8,3.6,1.8,4.7c3.4,1.5,6.9,3,10.4,4.3c1.7,0.7,2.3,1.8,2.7,3.5c0.8,4,0.1,7.8-0.8,11.6c-0.7,2.9-2,4-4.9,4.4
				c-0.9,0.1-1.7,0.7-2.5,1.2c-1.6,1.3-3,3.1-4.8,3.9c-0.8,0.3-1.5,0.7-2.3,1c6.2,2.7,12.5,5.6,18.8,8.8c3.3,1.7,6.3,3.9,8.7,6.4
				l1.8,1.8v11.1c0.4,0,0.8,0,1.2,0c0,0,0.1,0,0.1,0c21.9,0,43.8,0,65.7,0C464.2,211.9,457.6,205.5,447.6,201.8z"/>
		</g>
	</g>
	<g>
		<g>
			<path d="M210.3,586.7c-6.3-3.2-12.7-5.9-19.3-8.4c-0.5-0.2-1.1-0.6-1.3-1c-0.5-1.2-0.9-2.4-1.3-3.7c-0.2-0.8-0.5-1.5-1.3-1.9
				c-0.2-0.1-0.4-0.6-0.4-0.9c0-2.9-0.6-5.9,1.5-8.4c0.1-0.1,0.1-0.2,0.1-0.3c1.1-2.5,1.4-5.4,3-7.7c0-0.1,0.1-0.1,0.1-0.2
				c0.2-1.8,0.4-3.6,0.5-5.4c0-0.2-0.2-0.6-0.4-0.7c-0.9-0.3-0.8-1-0.8-1.7c0-3.5,0-7,0-10.5c0-2-0.6-3.8-2.1-5.2
				c-1.7-1.6-3.5-3.1-5.3-4.6c-0.9-0.7-0.9-1.3-0.1-2.1c0.4-0.4,0.8-0.6,1.2-0.9c-0.1-0.1-0.2-0.3-0.3-0.4c-0.5,0-1.1-0.1-1.6,0
				c-2,0.3-4,0.6-5.9,1.1c-3.7,0.9-7.3,2-10.4,4.5c-2.1,1.7-3.7,3.7-3.9,6.5c-0.1,1.5-0.1,2.9-0.1,4.4c0,2.4,0,4.8,0,7.2
				c0,0.4-0.2,1-0.5,1.1c-1,0.3-1,0.9-0.9,1.7c0.1,0.6,0,1.1,0.1,1.7c0.3,1.5,0.7,3,1.1,4.5c0.3,1.1,0.9,2.1,1.1,3.3
				c0.3,2.2,1.2,4.2,2.7,5.9c0.2,0.3,0.4,0.8,0.4,1.1c-0.1,1.7-0.3,3.4-0.5,5.1c0,0.3-0.4,0.8-0.7,0.9c-1.1,0.2-1.3,1.1-1.6,2
				c-0.4,1.2-0.7,2.3-1.2,3.5c-0.1,0.3-0.5,0.7-0.8,0.9c-2,0.9-4.1,1.7-6.1,2.6c-2.2,0.9-4.4,1.8-6.5,2.8c-2.2,1-4.3,2.2-6.5,3.4
				c-1.3,0.7-2.4,1.4-3.4,2.4v3.8c24.9,0,49.8,0,74.7,0v-3.9C212.6,588.2,211.5,587.4,210.3,586.7z"/>
			<path d="M238.8,583.4c-3-1.1-5.9-2.4-8.8-3.7c-0.8-0.4-1.4-1.2-2.2-1.8c-0.3-0.3-0.7-0.5-1.1-0.5c-1.3-0.2-2-0.7-2.3-2
				c-0.4-1.7-0.7-3.5-0.4-5.3c0.2-0.8,0.4-1.3,1.2-1.6c1.6-0.6,3.2-1.3,4.8-2c1.2-0.5,1.3-0.9,0.8-2.1c-1.4-3.9-2.4-7.8-2.7-11.9
				c-0.2-2.6-0.1-5.3-0.8-7.8h-0.1c-0.1-0.2-0.1-0.5-0.1-0.7c-1.1-4.5-6-7-10.1-7.2c0,0-0.1,0-0.1,0c-0.3,0-0.6,0-0.9,0
				c-1.7,0.2-3.1,1.3-4.7,1.8c-2.1,0.6-3.4,2.6-4.2,4.7c-1.1,3-0.9,6.2-1.2,9.3c-0.3,4.1-1.3,8-2.7,11.9c-0.4,1.2-0.4,1.6,0.8,2.1
				c1.6,0.7,3.2,1.4,4.8,2c0.8,0.3,1.1,0.8,1.2,1.6c0.4,1.8,0.1,3.6-0.4,5.3c-0.3,1.3-0.9,1.8-2.3,2c-0.4,0.1-0.8,0.3-1.1,0.5
				c-0.8,0.6-1.4,1.4-2.2,1.8c-0.3,0.2-0.7,0.3-1,0.5c2.8,1.2,5.7,2.6,8.6,4c1.5,0.8,2.9,1.8,4,2.9l0.8,0.8v5.1c0.2,0,0.4,0,0.5,0
				c0,0,0,0,0.1,0c10,0,20.1,0,30.1,0C246.4,588,243.4,585.1,238.8,583.4z"/>
		</g>
	</g>
	<g>
		<g>
			<path d="M374.5,622.9c-6.3-3.2-12.7-5.9-19.3-8.4c-0.5-0.2-1.1-0.6-1.3-1c-0.5-1.2-0.9-2.4-1.3-3.7c-0.2-0.8-0.5-1.5-1.3-1.9
				c-0.2-0.1-0.4-0.6-0.4-0.9c0-2.9-0.6-5.9,1.5-8.4c0.1-0.1,0.1-0.2,0.1-0.3c1.1-2.5,1.4-5.4,3-7.7c0-0.1,0.1-0.1,0.1-0.2
				c0.2-1.8,0.4-3.6,0.5-5.4c0-0.2-0.2-0.6-0.4-0.7c-0.9-0.3-0.8-1-0.8-1.7c0-3.5,0-7,0-10.5c0-2-0.6-3.8-2.1-5.2
				c-1.7-1.6-3.5-3.1-5.3-4.6c-0.9-0.7-0.9-1.3-0.1-2.1c0.4-0.4,0.8-0.6,1.2-0.9c-0.1-0.1-0.2-0.3-0.3-0.4c-0.5,0-1.1-0.1-1.6,0
				c-2,0.3-4,0.6-5.9,1.1c-3.7,0.9-7.3,2-10.4,4.5c-2.1,1.7-3.7,3.7-3.9,6.5c-0.1,1.5-0.1,2.9-0.1,4.4c0,2.4,0,4.8,0,7.2
				c0,0.4-0.2,1-0.5,1.1c-1,0.3-1,0.9-0.9,1.7c0.1,0.6,0,1.1,0.1,1.7c0.3,1.5,0.7,3,1.1,4.5c0.3,1.1,0.9,2.1,1.1,3.3
				c0.3,2.2,1.2,4.2,2.7,5.9c0.2,0.3,0.4,0.8,0.4,1.1c-0.1,1.7-0.3,3.4-0.5,5.1c0,0.3-0.4,0.8-0.7,0.9c-1.1,0.2-1.3,1.1-1.6,2
				c-0.4,1.2-0.7,2.3-1.2,3.5c-0.1,0.3-0.5,0.7-0.8,0.9c-2,0.9-4.1,1.7-6.1,2.6c-2.2,0.9-4.4,1.8-6.5,2.8c-2.2,1-4.3,2.2-6.5,3.4
				c-1.3,0.7-2.4,1.4-3.4,2.4v3.8c24.9,0,49.8,0,74.7,0v-3.9C376.8,624.3,375.7,623.5,374.5,622.9z"/>
			<path d="M402.9,619.5c-3-1.1-5.9-2.4-8.8-3.7c-0.8-0.4-1.4-1.2-2.2-1.8c-0.3-0.3-0.7-0.5-1.1-0.5c-1.3-0.2-2-0.7-2.3-2
				c-0.4-1.7-0.7-3.5-0.4-5.3c0.2-0.8,0.4-1.3,1.2-1.6c1.6-0.6,3.2-1.3,4.8-2c1.2-0.5,1.3-0.9,0.8-2.1c-1.4-3.9-2.4-7.8-2.7-11.9
				c-0.2-2.6-0.1-5.3-0.8-7.8h-0.1c-0.1-0.2-0.1-0.5-0.1-0.7c-1.1-4.5-6-7-10.1-7.2c0,0-0.1,0-0.1,0c-0.3,0-0.6,0-0.9,0
				c-1.7,0.2-3.1,1.3-4.7,1.8c-2.1,0.6-3.4,2.6-4.2,4.7c-1.1,3-0.9,6.2-1.2,9.3c-0.3,4.1-1.3,8-2.7,11.9c-0.4,1.2-0.4,1.6,0.8,2.1
				c1.6,0.7,3.2,1.4,4.8,2c0.8,0.3,1.1,0.8,1.2,1.6c0.4,1.8,0.1,3.6-0.4,5.3c-0.3,1.3-0.9,1.8-2.3,2c-0.4,0.1-0.8,0.3-1.1,0.5
				c-0.8,0.6-1.4,1.4-2.2,1.8c-0.3,0.2-0.7,0.3-1,0.5c2.8,1.2,5.7,2.6,8.6,4c1.5,0.8,2.9,1.8,4,2.9l0.8,0.8v5.1c0.2,0,0.4,0,0.5,0
				c0,0,0,0,0.1,0c10,0,20.1,0,30.1,0C410.6,624.2,407.5,621.2,402.9,619.5z"/>
		</g>
	</g>
	<g>
		<g>
			<path d="M538.7,622.9c-6.3-3.2-12.7-5.9-19.3-8.4c-0.5-0.2-1.1-0.6-1.3-1c-0.5-1.2-0.9-2.4-1.3-3.7c-0.2-0.8-0.5-1.5-1.3-1.9
				c-0.2-0.1-0.4-0.6-0.4-0.9c0-2.9-0.6-5.9,1.5-8.4c0.1-0.1,0.1-0.2,0.1-0.3c1.1-2.5,1.4-5.4,3-7.7c0-0.1,0.1-0.1,0.1-0.2
				c0.2-1.8,0.4-3.6,0.5-5.4c0-0.2-0.2-0.6-0.4-0.7c-0.9-0.3-0.8-1-0.8-1.7c0-3.5,0-7,0-10.5c0-2-0.6-3.8-2.1-5.2
				c-1.7-1.6-3.5-3.1-5.3-4.6c-0.9-0.7-0.9-1.3-0.1-2.1c0.4-0.4,0.8-0.6,1.2-0.9c-0.1-0.1-0.2-0.3-0.3-0.4c-0.5,0-1.1-0.1-1.6,0
				c-2,0.3-4,0.6-5.9,1.1c-3.7,0.9-7.3,2-10.4,4.5c-2.1,1.7-3.7,3.7-3.9,6.5c-0.1,1.5-0.1,2.9-0.1,4.4c0,2.4,0,4.8,0,7.2
				c0,0.4-0.2,1-0.5,1.1c-1,0.3-1,0.9-0.9,1.7c0.1,0.6,0,1.1,0.1,1.7c0.3,1.5,0.7,3,1.1,4.5c0.3,1.1,0.9,2.1,1.1,3.3
				c0.3,2.2,1.2,4.2,2.7,5.9c0.2,0.3,0.4,0.8,0.4,1.1c-0.1,1.7-0.3,3.4-0.5,5.1c0,0.3-0.4,0.8-0.7,0.9c-1.1,0.2-1.3,1.1-1.6,2
				c-0.4,1.2-0.7,2.3-1.2,3.5c-0.1,0.3-0.5,0.7-0.8,0.9c-2,0.9-4.1,1.7-6.1,2.6c-2.2,0.9-4.4,1.8-6.5,2.8c-2.2,1-4.3,2.2-6.5,3.4
				c-1.3,0.7-2.4,1.4-3.4,2.4v3.8c24.9,0,49.8,0,74.7,0v-3.9C541,624.3,539.9,623.5,538.7,622.9z"/>
			<path d="M567.1,619.5c-3-1.1-5.9-2.4-8.8-3.7c-0.8-0.4-1.4-1.2-2.2-1.8c-0.3-0.3-0.7-0.5-1.1-0.5c-1.3-0.2-2-0.7-2.3-2
				c-0.4-1.7-0.7-3.5-0.4-5.3c0.2-0.8,0.4-1.3,1.2-1.6c1.6-0.6,3.2-1.3,4.8-2c1.2-0.5,1.3-0.9,0.8-2.1c-1.4-3.9-2.4-7.8-2.7-11.9
				c-0.2-2.6-0.1-5.3-0.8-7.8h-0.1c-0.1-0.2-0.1-0.5-0.1-0.7c-1.1-4.5-6-7-10.1-7.2c0,0-0.1,0-0.1,0c-0.3,0-0.6,0-0.9,0
				c-1.7,0.2-3.1,1.3-4.7,1.8c-2.1,0.6-3.4,2.6-4.2,4.7c-1.1,3-0.9,6.2-1.2,9.3c-0.3,4.1-1.3,8-2.7,11.9c-0.4,1.2-0.4,1.6,0.8,2.1
				c1.6,0.7,3.2,1.4,4.8,2c0.8,0.3,1.1,0.8,1.2,1.6c0.4,1.8,0.1,3.6-0.4,5.3c-0.3,1.3-0.9,1.8-2.3,2c-0.4,0.1-0.8,0.3-1.1,0.5
				c-0.8,0.6-1.4,1.4-2.2,1.8c-0.3,0.2-0.7,0.3-1,0.5c2.8,1.2,5.7,2.6,8.6,4c1.5,0.8,2.9,1.8,4,2.9l0.8,0.8v5.1c0.2,0,0.4,0,0.5,0
				c0,0,0,0,0.1,0c10,0,20.1,0,30.1,0C574.8,624.2,571.7,621.2,567.1,619.5z"/>
		</g>
	</g>
	<g>
		<g>
			<path d="M702.8,586.7c-6.3-3.2-12.7-5.9-19.3-8.4c-0.5-0.2-1.1-0.6-1.3-1c-0.5-1.2-0.9-2.4-1.3-3.7c-0.2-0.8-0.5-1.5-1.3-1.9
				c-0.2-0.1-0.4-0.6-0.4-0.9c0-2.9-0.6-5.9,1.5-8.4c0.1-0.1,0.1-0.2,0.1-0.3c1.1-2.5,1.4-5.4,3-7.7c0-0.1,0.1-0.1,0.1-0.2
				c0.2-1.8,0.4-3.6,0.5-5.4c0-0.2-0.2-0.6-0.4-0.7c-0.9-0.3-0.8-1-0.8-1.7c0-3.5,0-7,0-10.5c0-2-0.6-3.8-2.1-5.2
				c-1.7-1.6-3.5-3.1-5.3-4.6c-0.9-0.7-0.9-1.3-0.1-2.1c0.4-0.4,0.8-0.6,1.2-0.9c-0.1-0.1-0.2-0.3-0.3-0.4c-0.5,0-1.1-0.1-1.6,0
				c-2,0.3-4,0.6-5.9,1.1c-3.7,0.9-7.3,2-10.4,4.5c-2.1,1.7-3.7,3.7-3.9,6.5c-0.1,1.5-0.1,2.9-0.1,4.4c0,2.4,0,4.8,0,7.2
				c0,0.4-0.2,1-0.5,1.1c-1,0.3-1,0.9-0.9,1.7c0.1,0.6,0,1.1,0.1,1.7c0.3,1.5,0.7,3,1.1,4.5c0.3,1.1,0.9,2.1,1.1,3.3
				c0.3,2.2,1.2,4.2,2.7,5.9c0.2,0.3,0.4,0.8,0.4,1.1c-0.1,1.7-0.3,3.4-0.5,5.1c0,0.3-0.4,0.8-0.7,0.9c-1.1,0.2-1.3,1.1-1.6,2
				c-0.4,1.2-0.7,2.3-1.2,3.5c-0.1,0.3-0.5,0.7-0.8,0.9c-2,0.9-4.1,1.7-6.1,2.6c-2.2,0.9-4.4,1.8-6.5,2.8c-2.2,1-4.3,2.2-6.5,3.4
				c-1.3,0.7-2.4,1.4-3.4,2.4v3.8c24.9,0,49.8,0,74.7,0v-3.9C705.2,588.2,704.1,587.4,702.8,586.7z"/>
			<path d="M731.3,583.4c-3-1.1-5.9-2.4-8.8-3.7c-0.8-0.4-1.4-1.2-2.2-1.8c-0.3-0.3-0.7-0.5-1.1-0.5c-1.3-0.2-2-0.7-2.3-2
				c-0.4-1.7-0.7-3.5-0.4-5.3c0.2-0.8,0.4-1.3,1.2-1.6c1.6-0.6,3.2-1.3,4.8-2c1.2-0.5,1.3-0.9,0.8-2.1c-1.4-3.9-2.4-7.8-2.7-11.9
				c-0.2-2.6-0.1-5.3-0.8-7.8h-0.1c-0.1-0.2-0.1-0.5-0.1-0.7c-1.1-4.5-6-7-10.1-7.2c0,0-0.1,0-0.1,0c-0.3,0-0.6,0-0.9,0
				c-1.7,0.2-3.1,1.3-4.7,1.8c-2.1,0.6-3.4,2.6-4.2,4.7c-1.1,3-0.9,6.2-1.2,9.3c-0.3,4.1-1.3,8-2.7,11.9c-0.4,1.2-0.4,1.6,0.8,2.1
				c1.6,0.7,3.2,1.4,4.8,2c0.8,0.3,1.1,0.8,1.2,1.6c0.4,1.8,0.1,3.6-0.4,5.3c-0.3,1.3-0.9,1.8-2.3,2c-0.4,0.1-0.8,0.3-1.1,0.5
				c-0.8,0.6-1.4,1.4-2.2,1.8c-0.3,0.2-0.7,0.3-1,0.5c2.8,1.2,5.7,2.6,8.6,4c1.5,0.8,2.9,1.8,4,2.9l0.8,0.8v5.1c0.2,0,0.4,0,0.5,0
				c0,0,0,0,0.1,0c10,0,20.1,0,30.1,0C738.9,588,735.9,585.1,731.3,583.4z"/>
		</g>
	</g>
	<g>
		<g>
			<path d="M108.7,465.5c-6.3-3.2-12.7-5.9-19.3-8.4c-0.5-0.2-1.1-0.6-1.3-1c-0.5-1.2-0.9-2.4-1.3-3.7c-0.2-0.8-0.5-1.5-1.3-1.9
				c-0.2-0.1-0.4-0.6-0.4-0.9c0-2.9-0.6-5.9,1.5-8.4c0.1-0.1,0.1-0.2,0.1-0.3c1.1-2.5,1.4-5.4,3-7.7c0-0.1,0.1-0.1,0.1-0.2
				c0.2-1.8,0.4-3.6,0.5-5.4c0-0.2-0.2-0.6-0.4-0.7c-0.9-0.3-0.8-1-0.8-1.7c0-3.5,0-7,0-10.5c0-2-0.6-3.8-2.1-5.2
				c-1.7-1.6-3.5-3.1-5.3-4.6c-0.9-0.7-0.9-1.3-0.1-2.1c0.4-0.4,0.8-0.6,1.2-0.9c-0.1-0.1-0.2-0.3-0.3-0.4c-0.5,0-1.1-0.1-1.6,0
				c-2,0.3-4,0.6-5.9,1.1c-3.7,0.9-7.3,2-10.4,4.5c-2.1,1.7-3.7,3.7-3.9,6.5c-0.1,1.5-0.1,2.9-0.1,4.4c0,2.4,0,4.8,0,7.2
				c0,0.4-0.2,1-0.5,1.1c-1,0.3-1,0.9-0.9,1.7c0.1,0.6,0,1.1,0.1,1.7c0.3,1.5,0.7,3,1.1,4.5c0.3,1.1,0.9,2.1,1.1,3.3
				c0.3,2.2,1.2,4.2,2.7,5.9c0.2,0.3,0.4,0.8,0.4,1.1c-0.1,1.7-0.3,3.4-0.5,5.1c0,0.3-0.4,0.8-0.7,0.9c-1.1,0.2-1.3,1.1-1.6,2
				c-0.4,1.2-0.7,2.3-1.2,3.5c-0.1,0.3-0.5,0.7-0.8,0.9c-2,0.9-4.1,1.7-6.1,2.6c-2.2,0.9-4.4,1.8-6.5,2.8c-2.2,1-4.3,2.2-6.5,3.4
				c-1.3,0.7-2.4,1.4-3.4,2.4v3.8c24.9,0,49.8,0,74.7,0v-3.9C111,466.9,110,466.1,108.7,465.5z"/>
			<path d="M137.2,462.1c-3-1.1-5.9-2.4-8.8-3.7c-0.8-0.4-1.4-1.2-2.2-1.8c-0.3-0.3-0.7-0.5-1.1-0.5c-1.3-0.2-2-0.7-2.3-2
				c-0.4-1.7-0.7-3.5-0.4-5.3c0.2-0.8,0.4-1.3,1.2-1.6c1.6-0.6,3.2-1.3,4.8-2c1.2-0.5,1.3-0.9,0.8-2.1c-1.4-3.9-2.4-7.8-2.7-11.9
				c-0.2-2.6-0.1-5.3-0.8-7.8h-0.1c-0.1-0.2-0.1-0.5-0.1-0.7c-1.1-4.5-6-7-10.1-7.2c0,0-0.1,0-0.1,0c-0.3,0-0.6,0-0.9,0
				c-1.7,0.2-3.1,1.3-4.7,1.8c-2.1,0.6-3.4,2.6-4.2,4.7c-1.1,3-0.9,6.2-1.2,9.3c-0.3,4.1-1.3,8-2.7,11.9c-0.4,1.2-0.4,1.6,0.8,2.1
				c1.6,0.7,3.2,1.4,4.8,2c0.8,0.3,1.1,0.8,1.2,1.6c0.4,1.8,0.1,3.6-0.4,5.3c-0.3,1.3-0.9,1.8-2.3,2c-0.4,0.1-0.8,0.3-1.1,0.5
				c-0.8,0.6-1.4,1.4-2.2,1.8c-0.3,0.2-0.7,0.3-1,0.5c2.8,1.2,5.7,2.6,8.6,4c1.5,0.8,2.9,1.8,4,2.9l0.8,0.8v5.1c0.2,0,0.4,0,0.5,0
				c0,0,0,0,0.1,0c10,0,20.1,0,30.1,0C144.8,466.8,141.8,463.8,137.2,462.1z"/>
		</g>
	</g>
	<g>
		<g>
			<path d="M819.9,465.5c-6.3-3.2-12.7-5.9-19.3-8.4c-0.5-0.2-1.1-0.6-1.3-1c-0.5-1.2-0.9-2.4-1.3-3.7c-0.2-0.8-0.5-1.5-1.3-1.9
				c-0.2-0.1-0.4-0.6-0.4-0.9c0-2.9-0.6-5.9,1.5-8.4c0.1-0.1,0.1-0.2,0.1-0.3c1.1-2.5,1.4-5.4,3-7.7c0-0.1,0.1-0.1,0.1-0.2
				c0.2-1.8,0.4-3.6,0.5-5.4c0-0.2-0.2-0.6-0.4-0.7c-0.9-0.3-0.8-1-0.8-1.7c0-3.5,0-7,0-10.5c0-2-0.6-3.8-2.1-5.2
				c-1.7-1.6-3.5-3.1-5.3-4.6c-0.9-0.7-0.9-1.3-0.1-2.1c0.4-0.4,0.8-0.6,1.2-0.9c-0.1-0.1-0.2-0.3-0.3-0.4c-0.5,0-1.1-0.1-1.6,0
				c-2,0.3-4,0.6-5.9,1.1c-3.7,0.9-7.3,2-10.4,4.5c-2.1,1.7-3.7,3.7-3.9,6.5c-0.1,1.5-0.1,2.9-0.1,4.4c0,2.4,0,4.8,0,7.2
				c0,0.4-0.2,1-0.5,1.1c-1,0.3-1,0.9-0.9,1.7c0.1,0.6,0,1.1,0.1,1.7c0.3,1.5,0.7,3,1.1,4.5c0.3,1.1,0.9,2.1,1.1,3.3
				c0.3,2.2,1.2,4.2,2.7,5.9c0.2,0.3,0.4,0.8,0.4,1.1c-0.1,1.7-0.3,3.4-0.5,5.1c0,0.3-0.4,0.8-0.7,0.9c-1.1,0.2-1.3,1.1-1.6,2
				c-0.4,1.2-0.7,2.3-1.2,3.5c-0.1,0.3-0.5,0.7-0.8,0.9c-2,0.9-4.1,1.7-6.1,2.6c-2.2,0.9-4.4,1.8-6.5,2.8c-2.2,1-4.3,2.2-6.5,3.4
				c-1.3,0.7-2.4,1.4-3.4,2.4v3.8c24.9,0,49.8,0,74.7,0v-3.9C822.3,466.9,821.2,466.1,819.9,465.5z"/>
			<path d="M848.4,462.1c-3-1.1-5.9-2.4-8.8-3.7c-0.8-0.4-1.4-1.2-2.2-1.8c-0.3-0.3-0.7-0.5-1.1-0.5c-1.3-0.2-2-0.7-2.3-2
				c-0.4-1.7-0.7-3.5-0.4-5.3c0.2-0.8,0.4-1.3,1.2-1.6c1.6-0.6,3.2-1.3,4.8-2c1.2-0.5,1.3-0.9,0.8-2.1c-1.4-3.9-2.4-7.8-2.7-11.9
				c-0.2-2.6-0.1-5.3-0.8-7.8h-0.1c-0.1-0.2-0.1-0.5-0.1-0.7c-1.1-4.5-6-7-10.1-7.2c0,0-0.1,0-0.1,0c-0.3,0-0.6,0-0.9,0
				c-1.7,0.2-3.1,1.3-4.7,1.8c-2.1,0.6-3.4,2.6-4.2,4.7c-1.1,3-0.9,6.2-1.2,9.3c-0.3,4.1-1.3,8-2.7,11.9c-0.4,1.2-0.4,1.6,0.8,2.1
				c1.6,0.7,3.2,1.4,4.8,2c0.8,0.3,1.1,0.8,1.2,1.6c0.4,1.8,0.1,3.6-0.4,5.3c-0.3,1.3-0.9,1.8-2.3,2c-0.4,0.1-0.8,0.3-1.1,0.5
				c-0.8,0.6-1.4,1.4-2.2,1.8c-0.3,0.2-0.7,0.3-1,0.5c2.8,1.2,5.7,2.6,8.6,4c1.5,0.8,2.9,1.8,4,2.9l0.8,0.8v5.1c0.2,0,0.4,0,0.5,0
				c0,0,0,0,0.1,0c10,0,20.1,0,30.1,0C856,466.8,853,463.8,848.4,462.1z"/>
		</g>
	</g>
	<text transform="matrix(1 0 0 1 500.7659 91.6382)" class="st3 st4">&lt;Layout /&gt;</text>
	<text transform="matrix(1 0 0 1 500.7659 129.936)" class="st3 st4">&lt;CodeSnippet /&gt;</text>
	<text transform="matrix(1 0 0 1 500.7659 167.1701)" class="st3 st4">&lt;Icon /&gt;</text>
	<text transform="matrix(1 0 0 1 500.7659 204.4041)" class="st3 st4">&lt;Pagination /&gt;</text>
	<text transform="matrix(1 0 0 1 500.7659 241.6382)" class="st3 st4">&lt;Tabs /&gt;</text>
	<text transform="matrix(1 0 0 1 500.7659 279.8913)" class="st3 st4">&lt;Text truncate /&gt;</text>
	<text transform="matrix(1 0 0 1 600.7659 324.5722)" class="st3 st4">...</text>
	<g>
		<g>
			<line class="st8" x1="362.5" y1="266.1" x2="164.4" y2="405.8"/>
			<g>
				<polygon class="st9" points="152.9,414 164.5,395.9 165.3,405.2 173.8,409.1 				"/>
			</g>
		</g>
	</g>
	<g>
		<g>
			<line class="st8" x1="362.5" y1="266.1" x2="239.2" y2="504.6"/>
			<g>
				<polygon class="st9" points="232.7,517.2 234.6,495.8 239.7,503.7 249,503.2 				"/>
			</g>
		</g>
	</g>
	<g>
		<g>
			<line class="st8" x1="362.5" y1="266.1" x2="363.5" y2="513.7"/>
			<g>
				<polygon class="st9" points="363.5,527.8 355.3,507.9 363.5,512.6 371.6,507.9 				"/>
			</g>
		</g>
	</g>
	<g>
		<g>
			<line class="st8" x1="362.5" y1="266.1" x2="497.1" y2="508"/>
			<g>
				<polygon class="st9" points="504,520.4 487.2,506.9 496.6,507.1 501.4,499 				"/>
			</g>
		</g>
	</g>
	<g>
		<g>
			<line class="st8" x1="362.5" y1="266.1" x2="637.6" y2="485"/>
			<g>
				<polygon class="st9" points="648.6,493.8 628,487.7 636.8,484.3 638.1,475 				"/>
			</g>
		</g>
	</g>
	<g>
		<g>
			<line class="st8" x1="362.5" y1="266.1" x2="719.6" y2="414.9"/>
			<g>
				<polygon class="st9" points="732.7,420.4 711.2,420.2 718.7,414.5 717.4,405.2 				"/>
			</g>
		</g>
	</g>
</g>
</svg>
