<?xml version="1.0" encoding="utf-8"?>
<!-- Generator: Adobe Illustrator 19.2.0, SVG Export Plug-In . SVG Version: 6.00 Build 0)  -->
<svg version="1.1" id="Layer_1" xmlns="http://www.w3.org/2000/svg" xmlns:xlink="http://www.w3.org/1999/xlink" x="0px" y="0px"
	 width="1024px" height="600px" viewBox="0 0 1024 600" style="enable-background:new 0 0 1024 600;" xml:space="preserve">
<style type="text/css">
	.st0{fill:#E45126;}
	.st1{fill:#F1682B;}
	.st2{fill:#EBEBEB;}
	.st3{fill:#CAE3FF;}
	.st4{fill:#FFFFFF;}
	.st5{fill:#1673B6;}
	.st6{fill:#35A9DB;}
	.st7{fill:#E4A227;}
	.st8{fill:#F0BF26;}
</style>
<g>
	<polygon class="st0" points="53.1,532 26,228.4 323.5,228.4 296.4,531.9 174.5,565.7 	"/>
	<polygon class="st1" points="174.7,539.9 273.2,512.6 296.3,253.2 174.7,253.2 	"/>
	<polygon class="st2" points="174.7,365.8 125.4,365.8 122,327.7 174.7,327.7 174.7,290.4 174.6,290.4 81.3,290.4 82.2,300.4 
		91.4,403 174.7,403 	"/>
	<polygon class="st2" points="174.7,462.5 174.6,462.5 133.1,451.3 130.4,421.6 110.3,421.6 93.1,421.6 98.3,480.1 174.6,501.3 
		174.7,501.2 	"/>
	<g>
		<path class="st3" d="M53.7,145.8h18.9v18.7h17.3v-18.7h18.9v56.6H89.9v-19H72.6v19H53.7V145.8L53.7,145.8z"/>
		<path class="st3" d="M133.7,164.6h-16.7v-18.8h52.3v18.8h-16.7v37.8h-18.9L133.7,164.6L133.7,164.6z"/>
		<path class="st3" d="M177.6,145.8h19.7l12.1,19.9l12.1-19.9h19.7v56.6h-18.8v-28.1l-13,20.1h-0.3l-13-20.1v28.1h-18.5L177.6,145.8
			L177.6,145.8z"/>
		<path class="st3" d="M250.8,145.8h18.9v37.9h26.6v18.7h-45.5L250.8,145.8L250.8,145.8z"/>
	</g>
	<polygon class="st4" points="174.6,365.8 174.6,403 220.4,403 216.1,451.3 174.6,462.5 174.6,501.3 250.9,480.1 251.5,473.8 
		260.2,375.8 261.2,365.8 251.1,365.8 	"/>
	<polygon class="st4" points="174.6,290.4 174.6,313.5 174.6,327.6 174.6,327.7 264.4,327.7 264.4,327.7 264.5,327.7 265.3,319.3 
		267,300.4 267.9,290.4 	"/>
</g>
<g>
	<g>
		<polygon class="st3" points="933.6,161.4 909,161.4 934.6,189.2 934.6,202.5 881.7,202.5 881.7,187 907.4,187 881.7,159.1 
			881.7,145.8 933.6,145.8 		"/>
		<polygon class="st3" points="871.3,161.4 846.6,161.4 872.2,189.2 872.2,202.5 819.4,202.5 819.4,187 845,187 819.4,159.1 
			819.4,145.8 871.3,145.8 		"/>
		<polygon class="st3" points="809.5,162 782.9,162 782.9,186.3 809.5,186.3 809.5,202.5 763.9,202.5 763.9,145.8 809.5,145.8 		"/>
	</g>
	<polygon class="st5" points="727.6,532 700.5,228.4 998,228.4 970.9,531.9 849.1,565.7 	"/>
	<polygon class="st6" points="849.3,539.9 947.7,512.6 970.9,253.2 849.3,253.2 	"/>
	<g>
		<polygon class="st4" points="849.3,363.2 898.6,363.2 902,325.1 849.3,325.1 849.3,287.8 849.4,287.8 942.7,287.8 941.8,297.8 
			932.6,400.4 849.3,400.4 		"/>
		<polygon class="st2" points="849.5,459.9 849.3,460 807.9,448.8 805.2,419.1 785.1,419.1 767.8,419.1 773,477.5 849.3,498.7 
			849.5,498.7 		"/>
		<polygon class="st4" points="895.4,398.9 890.9,448.7 849.4,459.9 849.4,498.7 925.7,477.5 926.3,471.2 932.7,398.9 		"/>
		<polygon class="st2" points="849.4,287.8 849.4,311 849.4,325 849.4,325.1 759.6,325.1 759.6,325.1 759.5,325.1 758.7,316.7 
			757,297.8 756.1,287.8 		"/>
		<polygon class="st2" points="849.3,363.2 849.3,386.3 849.3,400.4 849.3,400.4 808.4,400.4 808.4,400.4 808.3,400.4 807.6,392.1 
			805.9,373.2 805,363.2 		"/>
	</g>
</g>
<g>
	<polygon class="st7" points="390.3,408.8 363.3,105.1 660.7,105.1 633.6,408.7 511.8,442.5 	"/>
	<polygon class="st8" points="511.8,416.3 610.2,389 633.3,129.6 511.8,129.6 	"/>
	<g>
		<polygon class="st3" points="564.9,38.1 540.2,38.1 565.9,65.9 565.9,79.2 513,79.2 513,63.7 538.7,63.7 513,35.8 513,22.5 
			564.9,22.5 		"/>
		<path class="st3" d="M503.6,22.5v56.6h-45.5V60.5h26.6V22.5H503.6L503.6,22.5z"/>
	</g>
	<polygon class="st2" points="511.7,338.9 511.5,339 470.1,327.8 467.4,298.1 447.3,298.1 430,298.1 435.2,356.5 511.5,377.7 
		511.7,377.7 	"/>
	<polygon class="st2" points="516.7,279.4 516.7,242.2 470.9,242.2 476.2,183.8 516.8,182.7 516.7,144 442.6,144 439.8,171.4 
		431.1,269.4 430.2,279.4 440.2,279.4 	"/>
	<polygon class="st4" points="516.5,182.7 516.6,182.7 557.3,185.1 560.7,223.6 580.9,223.6 598.1,223.6 591.6,151.6 516.6,143.9 
		516.5,144 	"/>
	<polyline class="st4" points="594.3,182.8 591.1,144 512.5,144 512.5,168.1 512.5,182.7 512.5,182.8 594.3,182.8 	"/>
	<polygon class="st4" points="511.6,242.2 511.6,279.5 557.4,279.5 553.1,327.7 511.6,339 511.6,377.7 587.9,356.5 588.5,350.3 
		597.2,252.2 598.1,242.2 588.1,242.2 	"/>
	<path class="st4" d="M589.5,181.2"/>
</g>
</svg>
