<?xml version="1.0" encoding="utf-8"?>
<!-- Generator: Adobe Illustrator 19.2.0, SVG Export Plug-In . SVG Version: 6.00 Build 0)  -->
<svg version="1.1" id="Layer_1" xmlns="http://www.w3.org/2000/svg" xmlns:xlink="http://www.w3.org/1999/xlink" x="0px" y="0px"
	 width="894px" height="675px" viewBox="0 0 894 675" style="enable-background:new 0 0 894 675;" xml:space="preserve">
<style type="text/css">
	.st0{fill:none;stroke:#FFDEED;stroke-width:2;stroke-miterlimit:10;}
	.st1{font-family:'MyriadPro-Regular';}
	.st2{font-size:32px;}
	.st3{fill:#010002;}
	.st4{fill:none;stroke:#B6275E;stroke-width:7;stroke-miterlimit:10;}
</style>
<line class="st0" x1="398.6" y1="112.9" x2="398.6" y2="423.6"/>
<line class="st0" x1="632.7" y1="112.9" x2="632.7" y2="423.6"/>
<text transform="matrix(1 0 0 1 230.5531 128.8722)" class="st1 st2">Team A</text>
<text transform="matrix(1 0 0 1 461.4042 128.8722)" class="st1 st2">Team B</text>
<text transform="matrix(1 0 0 1 692.2552 128.8722)" class="st1 st2">Team C</text>
<text transform="matrix(1 0 0 1 59.2766 261.8509)" class="st1 st2">Frontend</text>
<g>
	<g>
		<path class="st3" d="M300.7,274.5c-4.8-2.5-9.8-4.5-14.9-6.5c-0.4-0.1-0.8-0.4-1-0.8c-0.4-0.9-0.7-1.9-1-2.8
			c-0.2-0.6-0.4-1.2-1-1.5c-0.2-0.1-0.3-0.4-0.3-0.7c0-2.2-0.5-4.6,1.2-6.5c0.1-0.1,0.1-0.1,0.1-0.2c0.9-1.9,1-4.2,2.3-6
			c0,0,0-0.1,0-0.2c0.1-1.4,0.3-2.8,0.4-4.1c0-0.2-0.1-0.5-0.3-0.5c-0.7-0.2-0.6-0.8-0.6-1.3c0-2.7,0-5.4,0-8.1c0-1.6-0.5-3-1.6-4
			c-1.3-1.2-2.7-2.4-4.1-3.6c-0.7-0.6-0.7-1-0.1-1.6c0.3-0.3,0.6-0.5,1-0.7c-0.1-0.1-0.1-0.2-0.2-0.3c-0.4,0-0.8-0.1-1.3,0
			c-1.5,0.2-3.1,0.5-4.6,0.8c-2.9,0.7-5.7,1.6-8,3.5c-1.6,1.3-2.9,2.9-3,5c-0.1,1.1-0.1,2.3-0.1,3.4c0,1.9,0,3.7,0,5.6
			c0,0.3-0.2,0.8-0.4,0.9c-0.8,0.2-0.8,0.7-0.7,1.3c0.1,0.4,0,0.9,0.1,1.3c0.3,1.2,0.5,2.3,0.9,3.5c0.3,0.9,0.7,1.7,0.9,2.5
			c0.3,1.7,0.9,3.2,2.1,4.5c0.2,0.2,0.3,0.6,0.3,0.9c-0.1,1.3-0.2,2.7-0.4,4c0,0.3-0.3,0.6-0.5,0.7c-0.9,0.2-1,0.9-1.2,1.6
			c-0.3,0.9-0.6,1.8-0.9,2.7c-0.1,0.3-0.4,0.6-0.7,0.7c-1.6,0.7-3.2,1.3-4.8,2c-1.7,0.7-3.4,1.4-5,2.2c-1.7,0.8-3.3,1.7-5,2.6
			c-1,0.5-1.9,1.1-2.7,1.8v2.9c19.3,0,38.5,0,57.8,0v-3C302.5,275.6,301.6,275,300.7,274.5z"/>
		<path class="st3" d="M322.7,271.9c-2.3-0.9-4.6-1.8-6.8-2.9c-0.6-0.3-1.1-0.9-1.7-1.4c-0.3-0.2-0.6-0.4-0.9-0.4
			c-1-0.2-1.5-0.5-1.7-1.6c-0.3-1.3-0.6-2.7-0.3-4.1c0.1-0.6,0.3-1,0.9-1.2c1.2-0.5,2.5-1,3.7-1.5c0.9-0.4,1-0.7,0.6-1.7
			c-1.1-3-1.8-6-2.1-9.2c-0.2-2-0.1-4.1-0.6-6h-0.1c0-0.2-0.1-0.4-0.1-0.5c-0.9-3.5-4.6-5.4-7.8-5.6c0,0-0.1,0-0.1,0
			c-0.2,0-0.5,0-0.7,0c-1.3,0.2-2.4,1-3.7,1.4c-1.6,0.5-2.6,2-3.3,3.6c-0.9,2.3-0.7,4.8-0.9,7.2c-0.3,3.2-1,6.2-2.1,9.2
			c-0.3,0.9-0.3,1.3,0.6,1.7c1.2,0.5,2.4,1.1,3.7,1.5c0.6,0.2,0.8,0.6,0.9,1.2c0.3,1.4,0.1,2.8-0.3,4.1c-0.2,1-0.7,1.4-1.8,1.6
			c-0.3,0-0.6,0.2-0.9,0.4c-0.6,0.4-1.1,1.1-1.7,1.4c-0.3,0.1-0.5,0.2-0.8,0.4c2.2,1,4.4,2,6.7,3.1c1.2,0.6,2.2,1.4,3.1,2.3l0.6,0.6
			v3.9c0.1,0,0.3,0,0.4,0c0,0,0,0,0.1,0c7.8,0,15.5,0,23.3,0C328.6,275.5,326.2,273.3,322.7,271.9z"/>
	</g>
</g>
<g>
	<g>
		<path class="st3" d="M525.2,274.5c-4.8-2.5-9.8-4.5-14.9-6.5c-0.4-0.1-0.8-0.4-1-0.8c-0.4-0.9-0.7-1.9-1-2.8
			c-0.2-0.6-0.4-1.2-1-1.5c-0.2-0.1-0.3-0.4-0.3-0.7c0-2.2-0.5-4.6,1.2-6.5c0.1-0.1,0.1-0.1,0.1-0.2c0.9-1.9,1-4.2,2.3-6
			c0,0,0-0.1,0-0.2c0.1-1.4,0.3-2.8,0.4-4.1c0-0.2-0.1-0.5-0.3-0.5c-0.7-0.2-0.6-0.8-0.6-1.3c0-2.7,0-5.4,0-8.1c0-1.6-0.5-3-1.6-4
			c-1.3-1.2-2.7-2.4-4.1-3.6c-0.7-0.6-0.7-1-0.1-1.6c0.3-0.3,0.6-0.5,1-0.7c-0.1-0.1-0.1-0.2-0.2-0.3c-0.4,0-0.8-0.1-1.3,0
			c-1.5,0.2-3.1,0.5-4.6,0.8c-2.9,0.7-5.7,1.6-8,3.5c-1.6,1.3-2.9,2.9-3,5c-0.1,1.1-0.1,2.3-0.1,3.4c0,1.9,0,3.7,0,5.6
			c0,0.3-0.2,0.8-0.4,0.9c-0.8,0.2-0.8,0.7-0.7,1.3c0.1,0.4,0,0.9,0.1,1.3c0.3,1.2,0.5,2.3,0.9,3.5c0.3,0.9,0.7,1.7,0.9,2.5
			c0.3,1.7,0.9,3.2,2.1,4.5c0.2,0.2,0.3,0.6,0.3,0.9c-0.1,1.3-0.2,2.7-0.4,4c0,0.3-0.3,0.6-0.5,0.7c-0.9,0.2-1,0.9-1.2,1.6
			c-0.3,0.9-0.6,1.8-0.9,2.7c-0.1,0.3-0.4,0.6-0.7,0.7c-1.6,0.7-3.2,1.3-4.8,2c-1.7,0.7-3.4,1.4-5,2.2c-1.7,0.8-3.3,1.7-5,2.6
			c-1,0.5-1.9,1.1-2.7,1.8v2.9c19.3,0,38.5,0,57.8,0v-3C527,275.6,526.1,275,525.2,274.5z"/>
		<path class="st3" d="M547.2,271.9c-2.3-0.9-4.6-1.8-6.8-2.9c-0.6-0.3-1.1-0.9-1.7-1.4c-0.3-0.2-0.6-0.4-0.9-0.4
			c-1-0.2-1.5-0.5-1.7-1.6c-0.3-1.3-0.6-2.7-0.3-4.1c0.1-0.6,0.3-1,0.9-1.2c1.2-0.5,2.5-1,3.7-1.5c0.9-0.4,1-0.7,0.6-1.7
			c-1.1-3-1.8-6-2.1-9.2c-0.2-2-0.1-4.1-0.6-6h-0.1c0-0.2-0.1-0.4-0.1-0.5c-0.9-3.5-4.6-5.4-7.8-5.6c0,0-0.1,0-0.1,0
			c-0.2,0-0.5,0-0.7,0c-1.3,0.2-2.4,1-3.7,1.4c-1.6,0.5-2.6,2-3.3,3.6c-0.9,2.3-0.7,4.8-0.9,7.2c-0.3,3.2-1,6.2-2.1,9.2
			c-0.3,0.9-0.3,1.3,0.6,1.7c1.2,0.5,2.4,1.1,3.7,1.5c0.6,0.2,0.8,0.6,0.9,1.2c0.3,1.4,0.1,2.8-0.3,4.1c-0.2,1-0.7,1.4-1.8,1.6
			c-0.3,0-0.6,0.2-0.9,0.4c-0.6,0.4-1.1,1.1-1.7,1.4c-0.3,0.1-0.5,0.2-0.8,0.4c2.2,1,4.4,2,6.7,3.1c1.2,0.6,2.2,1.4,3.1,2.3l0.6,0.6
			v3.9c0.1,0,0.3,0,0.4,0c0,0,0,0,0.1,0c7.8,0,15.5,0,23.3,0C553.1,275.5,550.7,273.3,547.2,271.9z"/>
	</g>
</g>
<g>
	<g>
		<path class="st3" d="M749.6,274.5c-4.8-2.5-9.8-4.5-14.9-6.5c-0.4-0.1-0.8-0.4-1-0.8c-0.4-0.9-0.7-1.9-1-2.8
			c-0.2-0.6-0.4-1.2-1-1.5c-0.2-0.1-0.3-0.4-0.3-0.7c0-2.2-0.5-4.6,1.2-6.5c0.1-0.1,0.1-0.1,0.1-0.2c0.9-1.9,1-4.2,2.3-6
			c0,0,0-0.1,0-0.2c0.1-1.4,0.3-2.8,0.4-4.1c0-0.2-0.1-0.5-0.3-0.5c-0.7-0.2-0.6-0.8-0.6-1.3c0-2.7,0-5.4,0-8.1c0-1.6-0.5-3-1.6-4
			c-1.3-1.2-2.7-2.4-4.1-3.6c-0.7-0.6-0.7-1-0.1-1.6c0.3-0.3,0.6-0.5,1-0.7c-0.1-0.1-0.1-0.2-0.2-0.3c-0.4,0-0.8-0.1-1.3,0
			c-1.5,0.2-3.1,0.5-4.6,0.8c-2.9,0.7-5.7,1.6-8,3.5c-1.6,1.3-2.9,2.9-3,5c-0.1,1.1-0.1,2.3-0.1,3.4c0,1.9,0,3.7,0,5.6
			c0,0.3-0.2,0.8-0.4,0.9c-0.8,0.2-0.8,0.7-0.7,1.3c0.1,0.4,0,0.9,0.1,1.3c0.3,1.2,0.5,2.3,0.9,3.5c0.3,0.9,0.7,1.7,0.9,2.5
			c0.3,1.7,0.9,3.2,2.1,4.5c0.2,0.2,0.3,0.6,0.3,0.9c-0.1,1.3-0.2,2.7-0.4,4c0,0.3-0.3,0.6-0.5,0.7c-0.9,0.2-1,0.9-1.2,1.6
			c-0.3,0.9-0.6,1.8-0.9,2.7c-0.1,0.3-0.4,0.6-0.7,0.7c-1.6,0.7-3.2,1.3-4.8,2c-1.7,0.7-3.4,1.4-5,2.2c-1.7,0.8-3.3,1.7-5,2.6
			c-1,0.5-1.9,1.1-2.7,1.8v2.9c19.3,0,38.5,0,57.8,0v-3C751.4,275.6,750.6,275,749.6,274.5z"/>
		<path class="st3" d="M771.6,271.9c-2.3-0.9-4.6-1.8-6.8-2.9c-0.6-0.3-1.1-0.9-1.7-1.4c-0.3-0.2-0.6-0.4-0.9-0.4
			c-1-0.2-1.5-0.5-1.7-1.6c-0.3-1.3-0.6-2.7-0.3-4.1c0.1-0.6,0.3-1,0.9-1.2c1.2-0.5,2.5-1,3.7-1.5c0.9-0.4,1-0.7,0.6-1.7
			c-1.1-3-1.8-6-2.1-9.2c-0.2-2-0.1-4.1-0.6-6h-0.1c0-0.2-0.1-0.4-0.1-0.5c-0.9-3.5-4.6-5.4-7.8-5.6c0,0-0.1,0-0.1,0
			c-0.2,0-0.5,0-0.7,0c-1.3,0.2-2.4,1-3.7,1.4c-1.6,0.5-2.6,2-3.3,3.6c-0.9,2.3-0.7,4.8-0.9,7.2c-0.3,3.2-1,6.2-2.1,9.2
			c-0.3,0.9-0.3,1.3,0.6,1.7c1.2,0.5,2.4,1.1,3.7,1.5c0.6,0.2,0.8,0.6,0.9,1.2c0.3,1.4,0.1,2.8-0.3,4.1c-0.2,1-0.7,1.4-1.8,1.6
			c-0.3,0-0.6,0.2-0.9,0.4c-0.6,0.4-1.1,1.1-1.7,1.4c-0.3,0.1-0.5,0.2-0.8,0.4c2.2,1,4.4,2,6.7,3.1c1.2,0.6,2.2,1.4,3.1,2.3l0.6,0.6
			v3.9c0.1,0,0.3,0,0.4,0c0,0,0,0,0.1,0c7.8,0,15.5,0,23.3,0C777.5,275.5,775.2,273.3,771.6,271.9z"/>
	</g>
</g>
<text transform="matrix(1 0 0 1 59.2766 420.3615)" class="st1 st2">Backend</text>
<g>
	<g>
		<path class="st3" d="M300.7,420.4c-4.8-2.5-9.8-4.5-14.9-6.5c-0.4-0.1-0.8-0.4-1-0.8c-0.4-0.9-0.7-1.9-1-2.8
			c-0.2-0.6-0.4-1.2-1-1.5c-0.2-0.1-0.3-0.4-0.3-0.7c0-2.2-0.5-4.6,1.2-6.5c0.1-0.1,0.1-0.1,0.1-0.2c0.9-1.9,1-4.2,2.3-6
			c0,0,0-0.1,0-0.2c0.1-1.4,0.3-2.8,0.4-4.1c0-0.2-0.1-0.5-0.3-0.5c-0.7-0.2-0.6-0.8-0.6-1.3c0-2.7,0-5.4,0-8.1c0-1.6-0.5-3-1.6-4
			c-1.3-1.2-2.7-2.4-4.1-3.6c-0.7-0.6-0.7-1-0.1-1.6c0.3-0.3,0.6-0.5,1-0.7c-0.1-0.1-0.1-0.2-0.2-0.3c-0.4,0-0.8-0.1-1.3,0
			c-1.5,0.2-3.1,0.5-4.6,0.8c-2.9,0.7-5.7,1.6-8,3.5c-1.6,1.3-2.9,2.9-3,5c-0.1,1.1-0.1,2.3-0.1,3.4c0,1.9,0,3.7,0,5.6
			c0,0.3-0.2,0.8-0.4,0.9c-0.8,0.2-0.8,0.7-0.7,1.3c0.1,0.4,0,0.9,0.1,1.3c0.3,1.2,0.5,2.3,0.9,3.5c0.3,0.9,0.7,1.7,0.9,2.5
			c0.3,1.7,0.9,3.2,2.1,4.5c0.2,0.2,0.3,0.6,0.3,0.9c-0.1,1.3-0.2,2.7-0.4,4c0,0.3-0.3,0.6-0.5,0.7c-0.9,0.2-1,0.9-1.2,1.6
			c-0.3,0.9-0.6,1.8-0.9,2.7c-0.1,0.3-0.4,0.6-0.7,0.7c-1.6,0.7-3.2,1.3-4.8,2c-1.7,0.7-3.4,1.4-5,2.2c-1.7,0.8-3.3,1.7-5,2.6
			c-1,0.5-1.9,1.1-2.7,1.8v2.9c19.3,0,38.5,0,57.8,0v-3C302.5,421.5,301.6,420.9,300.7,420.4z"/>
		<path class="st3" d="M322.7,417.8c-2.3-0.9-4.6-1.8-6.8-2.9c-0.6-0.3-1.1-0.9-1.7-1.4c-0.3-0.2-0.6-0.4-0.9-0.4
			c-1-0.2-1.5-0.5-1.7-1.6c-0.3-1.3-0.6-2.7-0.3-4.1c0.1-0.6,0.3-1,0.9-1.2c1.2-0.5,2.5-1,3.7-1.5c0.9-0.4,1-0.7,0.6-1.7
			c-1.1-3-1.8-6-2.1-9.2c-0.2-2-0.1-4.1-0.6-6h-0.1c0-0.2-0.1-0.4-0.1-0.5c-0.9-3.5-4.6-5.4-7.8-5.6c0,0-0.1,0-0.1,0
			c-0.2,0-0.5,0-0.7,0c-1.3,0.2-2.4,1-3.7,1.4c-1.6,0.5-2.6,2-3.3,3.6c-0.9,2.3-0.7,4.8-0.9,7.2c-0.3,3.2-1,6.2-2.1,9.2
			c-0.3,0.9-0.3,1.3,0.6,1.7c1.2,0.5,2.4,1.1,3.7,1.5c0.6,0.2,0.8,0.6,0.9,1.2c0.3,1.4,0.1,2.8-0.3,4.1c-0.2,1-0.7,1.4-1.8,1.6
			c-0.3,0-0.6,0.2-0.9,0.4c-0.6,0.4-1.1,1.1-1.7,1.4c-0.3,0.1-0.5,0.2-0.8,0.4c2.2,1,4.4,2,6.7,3.1c1.2,0.6,2.2,1.4,3.1,2.3l0.6,0.6
			v3.9c0.1,0,0.3,0,0.4,0c0,0,0,0,0.1,0c7.8,0,15.5,0,23.3,0C328.6,421.4,326.2,419.1,322.7,417.8z"/>
	</g>
</g>
<g>
	<g>
		<path class="st3" d="M525.2,420.4c-4.8-2.5-9.8-4.5-14.9-6.5c-0.4-0.1-0.8-0.4-1-0.8c-0.4-0.9-0.7-1.9-1-2.8
			c-0.2-0.6-0.4-1.2-1-1.5c-0.2-0.1-0.3-0.4-0.3-0.7c0-2.2-0.5-4.6,1.2-6.5c0.1-0.1,0.1-0.1,0.1-0.2c0.9-1.9,1-4.2,2.3-6
			c0,0,0-0.1,0-0.2c0.1-1.4,0.3-2.8,0.4-4.1c0-0.2-0.1-0.5-0.3-0.5c-0.7-0.2-0.6-0.8-0.6-1.3c0-2.7,0-5.4,0-8.1c0-1.6-0.5-3-1.6-4
			c-1.3-1.2-2.7-2.4-4.1-3.6c-0.7-0.6-0.7-1-0.1-1.6c0.3-0.3,0.6-0.5,1-0.7c-0.1-0.1-0.1-0.2-0.2-0.3c-0.4,0-0.8-0.1-1.3,0
			c-1.5,0.2-3.1,0.5-4.6,0.8c-2.9,0.7-5.7,1.6-8,3.5c-1.6,1.3-2.9,2.9-3,5c-0.1,1.1-0.1,2.3-0.1,3.4c0,1.9,0,3.7,0,5.6
			c0,0.3-0.2,0.8-0.4,0.9c-0.8,0.2-0.8,0.7-0.7,1.3c0.1,0.4,0,0.9,0.1,1.3c0.3,1.2,0.5,2.3,0.9,3.5c0.3,0.9,0.7,1.7,0.9,2.5
			c0.3,1.7,0.9,3.2,2.1,4.5c0.2,0.2,0.3,0.6,0.3,0.9c-0.1,1.3-0.2,2.7-0.4,4c0,0.3-0.3,0.6-0.5,0.7c-0.9,0.2-1,0.9-1.2,1.6
			c-0.3,0.9-0.6,1.8-0.9,2.7c-0.1,0.3-0.4,0.6-0.7,0.7c-1.6,0.7-3.2,1.3-4.8,2c-1.7,0.7-3.4,1.4-5,2.2c-1.7,0.8-3.3,1.7-5,2.6
			c-1,0.5-1.9,1.1-2.7,1.8v2.9c19.3,0,38.5,0,57.8,0v-3C527,421.5,526.1,420.9,525.2,420.4z"/>
		<path class="st3" d="M547.2,417.8c-2.3-0.9-4.6-1.8-6.8-2.9c-0.6-0.3-1.1-0.9-1.7-1.4c-0.3-0.2-0.6-0.4-0.9-0.4
			c-1-0.2-1.5-0.5-1.7-1.6c-0.3-1.3-0.6-2.7-0.3-4.1c0.1-0.6,0.3-1,0.9-1.2c1.2-0.5,2.5-1,3.7-1.5c0.9-0.4,1-0.7,0.6-1.7
			c-1.1-3-1.8-6-2.1-9.2c-0.2-2-0.1-4.1-0.6-6h-0.1c0-0.2-0.1-0.4-0.1-0.5c-0.9-3.5-4.6-5.4-7.8-5.6c0,0-0.1,0-0.1,0
			c-0.2,0-0.5,0-0.7,0c-1.3,0.2-2.4,1-3.7,1.4c-1.6,0.5-2.6,2-3.3,3.6c-0.9,2.3-0.7,4.8-0.9,7.2c-0.3,3.2-1,6.2-2.1,9.2
			c-0.3,0.9-0.3,1.3,0.6,1.7c1.2,0.5,2.4,1.1,3.7,1.5c0.6,0.2,0.8,0.6,0.9,1.2c0.3,1.4,0.1,2.8-0.3,4.1c-0.2,1-0.7,1.4-1.8,1.6
			c-0.3,0-0.6,0.2-0.9,0.4c-0.6,0.4-1.1,1.1-1.7,1.4c-0.3,0.1-0.5,0.2-0.8,0.4c2.2,1,4.4,2,6.7,3.1c1.2,0.6,2.2,1.4,3.1,2.3l0.6,0.6
			v3.9c0.1,0,0.3,0,0.4,0c0,0,0,0,0.1,0c7.8,0,15.5,0,23.3,0C553.1,421.4,550.7,419.1,547.2,417.8z"/>
	</g>
</g>
<g>
	<g>
		<path class="st3" d="M749.6,420.4c-4.8-2.5-9.8-4.5-14.9-6.5c-0.4-0.1-0.8-0.4-1-0.8c-0.4-0.9-0.7-1.9-1-2.8
			c-0.2-0.6-0.4-1.2-1-1.5c-0.2-0.1-0.3-0.4-0.3-0.7c0-2.2-0.5-4.6,1.2-6.5c0.1-0.1,0.1-0.1,0.1-0.2c0.9-1.9,1-4.2,2.3-6
			c0,0,0-0.1,0-0.2c0.1-1.4,0.3-2.8,0.4-4.1c0-0.2-0.1-0.5-0.3-0.5c-0.7-0.2-0.6-0.8-0.6-1.3c0-2.7,0-5.4,0-8.1c0-1.6-0.5-3-1.6-4
			c-1.3-1.2-2.7-2.4-4.1-3.6c-0.7-0.6-0.7-1-0.1-1.6c0.3-0.3,0.6-0.5,1-0.7c-0.1-0.1-0.1-0.2-0.2-0.3c-0.4,0-0.8-0.1-1.3,0
			c-1.5,0.2-3.1,0.5-4.6,0.8c-2.9,0.7-5.7,1.6-8,3.5c-1.6,1.3-2.9,2.9-3,5c-0.1,1.1-0.1,2.3-0.1,3.4c0,1.9,0,3.7,0,5.6
			c0,0.3-0.2,0.8-0.4,0.9c-0.8,0.2-0.8,0.7-0.7,1.3c0.1,0.4,0,0.9,0.1,1.3c0.3,1.2,0.5,2.3,0.9,3.5c0.3,0.9,0.7,1.7,0.9,2.5
			c0.3,1.7,0.9,3.2,2.1,4.5c0.2,0.2,0.3,0.6,0.3,0.9c-0.1,1.3-0.2,2.7-0.4,4c0,0.3-0.3,0.6-0.5,0.7c-0.9,0.2-1,0.9-1.2,1.6
			c-0.3,0.9-0.6,1.8-0.9,2.7c-0.1,0.3-0.4,0.6-0.7,0.7c-1.6,0.7-3.2,1.3-4.8,2c-1.7,0.7-3.4,1.4-5,2.2c-1.7,0.8-3.3,1.7-5,2.6
			c-1,0.5-1.9,1.1-2.7,1.8v2.9c19.3,0,38.5,0,57.8,0v-3C751.4,421.5,750.6,420.9,749.6,420.4z"/>
		<path class="st3" d="M771.6,417.8c-2.3-0.9-4.6-1.8-6.8-2.9c-0.6-0.3-1.1-0.9-1.7-1.4c-0.3-0.2-0.6-0.4-0.9-0.4
			c-1-0.2-1.5-0.5-1.7-1.6c-0.3-1.3-0.6-2.7-0.3-4.1c0.1-0.6,0.3-1,0.9-1.2c1.2-0.5,2.5-1,3.7-1.5c0.9-0.4,1-0.7,0.6-1.7
			c-1.1-3-1.8-6-2.1-9.2c-0.2-2-0.1-4.1-0.6-6h-0.1c0-0.2-0.1-0.4-0.1-0.5c-0.9-3.5-4.6-5.4-7.8-5.6c0,0-0.1,0-0.1,0
			c-0.2,0-0.5,0-0.7,0c-1.3,0.2-2.4,1-3.7,1.4c-1.6,0.5-2.6,2-3.3,3.6c-0.9,2.3-0.7,4.8-0.9,7.2c-0.3,3.2-1,6.2-2.1,9.2
			c-0.3,0.9-0.3,1.3,0.6,1.7c1.2,0.5,2.4,1.1,3.7,1.5c0.6,0.2,0.8,0.6,0.9,1.2c0.3,1.4,0.1,2.8-0.3,4.1c-0.2,1-0.7,1.4-1.8,1.6
			c-0.3,0-0.6,0.2-0.9,0.4c-0.6,0.4-1.1,1.1-1.7,1.4c-0.3,0.1-0.5,0.2-0.8,0.4c2.2,1,4.4,2,6.7,3.1c1.2,0.6,2.2,1.4,3.1,2.3l0.6,0.6
			v3.9c0.1,0,0.3,0,0.4,0c0,0,0,0,0.1,0c7.8,0,15.5,0,23.3,0C777.5,421.4,775.2,419.1,771.6,417.8z"/>
	</g>
</g>
<path class="st4" d="M864.3,302.3h-809c-6.6,0-12-5.4-12-12v-70.7c0-6.6,5.4-12,12-12h809c6.6,0,12,5.4,12,12v70.7
	C876.3,296.9,870.9,302.3,864.3,302.3z"/>
</svg>
