<?xml version="1.0" encoding="utf-8"?>
<!-- Generator: Adobe Illustrator 19.2.0, SVG Export Plug-In . SVG Version: 6.00 Build 0)  -->
<svg version="1.1" id="Layer_2_copy" xmlns="http://www.w3.org/2000/svg" xmlns:xlink="http://www.w3.org/1999/xlink" x="0px"
	 y="0px" width="70.9px" height="31.5px" viewBox="-15.2 21.3 70.9 31.5" style="enable-background:new -15.2 21.3 70.9 31.5;"
	 xml:space="preserve">
<style type="text/css">
	.st0{fill:#606D6E;}
	.st1{font-family:'Roboto-Regular';}
	.st2{font-size:4.7998px;}
	.st3{font-size:5.5998px;}
	.st4{display:none;}
	.st5{display:inline;fill:#389F8A;}
	.st6{display:inline;fill:#FFFFFF;}
	.st7{fill:#389F8A;}
	.st8{fill:none;stroke:#FFFFFF;stroke-width:0.7484;stroke-miterlimit:10;}
	.st9{fill:#FFFFFF;}
</style>
<text transform="matrix(1 0 0 1 19.5667 48.3704)" class="st0 st1 st2">by </text>
<text transform="matrix(1 0 0 1 25.7259 48.3704)" class="st0 st1 st3">RisingStack</text>
<g class="st4">
	<path class="st5" d="M19,31.9h-1.6c-0.1,0-0.2-0.1-0.2-0.2v-1.5c0-0.2-0.1-0.4-0.2-0.5c-0.1-0.1-0.3-0.2-0.5-0.2h-0.6
		c-0.2,0-0.4,0.1-0.5,0.2s-0.2,0.3-0.2,0.5v1.5c0,0.1-0.1,0.2-0.2,0.2h-0.6c-0.2,0-0.4,0.1-0.5,0.2c-0.1,0.1-0.2,0.3-0.2,0.5V33
		c0,0.2,0.1,0.4,0.2,0.5s0.3,0.2,0.5,0.2H15c0.1,0,0.2,0.1,0.2,0.2v4.3c0,1.1,0.3,1.9,0.8,2.5c0.5,0.6,1.3,0.9,2.4,0.9H19
		c0.2,0,0.4-0.1,0.5-0.2c0.1-0.1,0.2-0.3,0.2-0.5v-0.5c0-0.2-0.1-0.4-0.2-0.5c-0.1-0.1-0.3-0.2-0.5-0.2h-0.4c-0.6,0-0.9-0.1-1.1-0.4
		c-0.2-0.3-0.3-0.7-0.3-1.2v-4.2c0-0.1,0.1-0.2,0.2-0.2H19c0.2,0,0.4-0.1,0.5-0.2s0.2-0.3,0.2-0.5v-0.5c0-0.2-0.1-0.4-0.2-0.5
		C19.3,31.9,19.2,31.9,19,31.9"/>
	<path class="st5" d="M36,31.9h-3.2c-0.6,0-1.2,0.1-1.7,0.3c-0.5,0.2-0.9,0.5-1.3,0.9s-0.6,0.8-0.8,1.3c-0.2,0.5-0.3,1-0.3,1.6v1.9
		c0,0.6,0.1,1.1,0.3,1.6c0.2,0.5,0.4,0.9,0.7,1.2c0.3,0.4,0.7,0.6,1.1,0.8c0.4,0.2,0.9,0.3,1.4,0.3c0.6,0,1.1-0.1,1.4-0.3
		c0.4-0.2,0.7-0.4,0.9-0.7c0.1-0.1,0.1-0.1,0.2-0.1c0.1,0,0.1,0.1,0.1,0.2c0,0.1,0.1,0.3,0.2,0.4c0.1,0.1,0.3,0.2,0.5,0.2H36
		c0.2,0,0.4-0.1,0.5-0.2c0.1-0.1,0.2-0.3,0.2-0.5v-8.5c0-0.2-0.1-0.4-0.2-0.5C36.4,31.9,36.2,31.9,36,31.9 M34.7,37.6
		c0,0.3-0.1,0.6-0.1,0.9c-0.1,0.3-0.2,0.5-0.4,0.8c-0.2,0.2-0.4,0.4-0.7,0.6c-0.3,0.1-0.6,0.2-1,0.2c-0.6,0-1-0.2-1.3-0.5
		c-0.3-0.4-0.5-0.8-0.5-1.3V36c0-0.6,0.2-1.1,0.6-1.6c0.4-0.4,1-0.7,1.7-0.7h1.6c0.1,0,0.2,0.1,0.2,0.2L34.7,37.6L34.7,37.6z"/>
	<path class="st5" d="M45.5,39.3c-0.3-0.3-0.6-0.3-0.9,0c-0.1,0.1-0.4,0.3-0.6,0.5c-0.3,0.1-0.6,0.2-1,0.2c-0.4,0-0.7-0.1-0.9-0.2
		c-0.2-0.1-0.4-0.3-0.6-0.4c-0.1-0.2-0.3-0.4-0.3-0.7S41,38.2,41,37.9v-2.4c0-0.6,0.1-1,0.5-1.4c0.3-0.4,0.8-0.6,1.5-0.6
		c0.3,0,0.6,0.1,0.8,0.2c0.3,0.1,0.5,0.2,0.6,0.4c0.3,0.3,0.6,0.3,0.9,0l0.4-0.4c0.1-0.1,0.2-0.3,0.2-0.5c0-0.2-0.1-0.3-0.2-0.5
		c-0.3-0.3-0.7-0.6-1.1-0.8s-1-0.3-1.6-0.3c-0.6,0-1.1,0.1-1.6,0.3s-0.9,0.5-1.2,0.8c-0.4,0.4-0.6,0.8-0.8,1.2
		c-0.2,0.5-0.3,1-0.3,1.5v2.4c0,0.5,0.1,1,0.2,1.5c0.2,0.5,0.4,0.9,0.7,1.2s0.7,0.6,1.2,0.8c0.5,0.2,1.1,0.3,1.7,0.3
		c0.7,0,1.3-0.1,1.8-0.4c0.5-0.3,0.9-0.6,1.1-0.8c0.1-0.1,0.2-0.3,0.2-0.5c0-0.1,0-0.3-0.2-0.4L45.5,39.3z"/>
	<path class="st5" d="M26.5,31.9h-0.8c-1.1,0-1.9,0.3-2.5,1c-0.6,0.7-0.9,1.5-0.9,2.6v5.5c0,0.2,0.1,0.4,0.2,0.5s0.3,0.2,0.5,0.2
		h0.6c0.2,0,0.4-0.1,0.5-0.2c0.1-0.1,0.2-0.3,0.2-0.5v-5.4c0-0.6,0.1-1,0.4-1.3c0.3-0.4,0.7-0.5,1.2-0.5h0.6c0.2,0,0.4-0.1,0.5-0.2
		c0.1-0.1,0.2-0.3,0.2-0.5v-0.5c0-0.2-0.1-0.4-0.2-0.5C26.9,31.9,26.7,31.9,26.5,31.9"/>
	<path class="st5" d="M54,32.8c-0.4-0.4-0.7-0.6-1.2-0.8c-0.5-0.2-1-0.3-1.6-0.3c-0.6,0-1.1,0.1-1.6,0.3c-0.5,0.2-0.9,0.5-1.2,0.8
		c-0.3,0.4-0.6,0.8-0.7,1.2c-0.2,0.5-0.2,1-0.2,1.5V38c0,0.5,0.1,1,0.3,1.5c0.2,0.5,0.5,0.9,0.8,1.2c0.4,0.4,0.8,0.6,1.2,0.8
		c0.5,0.2,1,0.3,1.6,0.3c0.8,0,1.5-0.1,2-0.5c0.6-0.3,1-0.6,1.3-1c0.1-0.1,0.2-0.3,0.2-0.5c0-0.1-0.1-0.3-0.2-0.4l-0.4-0.4
		c-0.1-0.1-0.3-0.2-0.4-0.2c-0.1,0-0.3,0.1-0.5,0.2c-0.1,0.2-0.4,0.4-0.7,0.6c-0.3,0.2-0.7,0.3-1.3,0.3c-0.7,0-1.2-0.2-1.5-0.6
		s-0.5-0.8-0.5-1.4v-0.4c0-0.1,0.1-0.2,0.2-0.2h4.9c0.2,0,0.4-0.1,0.5-0.2c0.1-0.1,0.2-0.3,0.2-0.5v-1.3c0-0.5-0.1-1-0.3-1.5
		C54.5,33.5,54.3,33.1,54,32.8 M53,35.6c0,0.1-0.1,0.2-0.2,0.2h-3.4c-0.1,0-0.2-0.1-0.2-0.2v-0.1c0-0.6,0.1-1,0.4-1.4
		s0.8-0.6,1.4-0.6c0.7,0,1.2,0.2,1.5,0.6s0.5,0.8,0.5,1.4L53,35.6L53,35.6z"/>
	<path class="st5" d="M-1.7,24.2c-7.1,0-12.8,5.7-12.8,12.8s5.7,12.8,12.8,12.8S11,44,11,37S5.3,24.2-1.7,24.2 M6.5,39.3
		c-0.9,0-1.6-0.7-1.6-1.6c0-0.3,0.1-0.6,0.2-0.8l-0.5-0.5c-0.3,0.2-0.6,0.3-0.9,0.3c-0.3,0-0.6-0.1-0.8-0.2l-0.5,0.5
		c0.1,0.2,0.2,0.5,0.2,0.8c0,0.3-0.1,0.6-0.2,0.8l0.5,0.5c0.2-0.1,0.5-0.2,0.8-0.2c0.9,0,1.6,0.7,1.6,1.6S4.6,42,3.8,42
		s-1.6-0.7-1.6-1.6c0-0.3,0.1-0.6,0.2-0.8l-0.5-0.5c-0.2,0.1-0.5,0.2-0.8,0.2s-0.6-0.1-0.8-0.2l-3.2,3.2c0.1,0.2,0.2,0.5,0.2,0.8
		c0,0.9-0.7,1.6-1.6,1.6s-1.6-0.7-1.6-1.6c0-0.9,0.7-1.6,1.6-1.6c0.3,0,0.6,0.1,0.9,0.3l3.2-3.2c-0.1-0.2-0.2-0.5-0.2-0.8
		c0-0.9,0.7-1.6,1.6-1.6c0.3,0,0.6,0.1,0.8,0.2l0.5-0.5c-0.1-0.2-0.2-0.5-0.2-0.8s0.1-0.6,0.3-0.9l-3.2-3.2
		c-0.2,0.1-0.5,0.2-0.8,0.2c-0.3,0-0.6-0.1-0.8-0.2L-3,31.2l-2.5,2.5l-0.3,0.3c0.2,0.3,0.3,0.6,0.3,0.9s-0.1,0.6-0.2,0.8l0.6,0.6
		c0.3-0.2,0.6-0.3,0.9-0.3c0.9,0,1.6,0.7,1.6,1.6s-0.7,1.6-1.6,1.6s-1.6-0.7-1.6-1.6c0-0.3,0.1-0.5,0.2-0.7l-0.7-0.7
		c-0.2,0.1-0.5,0.2-0.8,0.2c-0.3,0-0.6-0.1-0.9-0.3l-0.7,0.7c0.1,0.2,0.2,0.5,0.2,0.7c0,0.9-0.7,1.6-1.6,1.6s-1.6-0.7-1.6-1.6
		s0.7-1.6,1.6-1.6c0.4,0,0.7,0.1,0.9,0.3l0.7-0.7c-0.1-0.2-0.2-0.5-0.2-0.8c0-0.9,0.7-1.6,1.6-1.6c0.3,0,0.5,0.1,0.8,0.2l0.4-0.4
		l2.5-2.5l0.4-0.4c-0.1-0.2-0.2-0.5-0.2-0.8c0-0.9,0.7-1.6,1.6-1.6s1.6,0.7,1.6,1.6c0,0.3-0.1,0.6-0.2,0.8l3.3,3.3
		c0.2-0.1,0.5-0.2,0.7-0.2c0.9,0,1.6,0.7,1.6,1.6c0,0.3-0.1,0.5-0.2,0.7l0.6,0.6c0.2-0.1,0.5-0.2,0.8-0.2c0.9,0,1.6,0.7,1.6,1.6
		C8.1,38.6,7.4,39.3,6.5,39.3"/>
	<path class="st5" d="M-10,37.1c-0.1,0-0.1,0-0.2,0c-0.4,0-0.7,0.3-0.7,0.7c0,0.4,0.3,0.7,0.7,0.7c0.4,0,0.6-0.3,0.7-0.6
		c0,0,0,0,0-0.1C-9.6,37.5-9.7,37.2-10,37.1"/>
	<path class="st5" d="M3.8,39.7c0,0-0.1,0-0.1,0c-0.3,0.1-0.5,0.3-0.6,0.6c0,0,0,0.1,0,0.1c0,0.4,0.3,0.7,0.7,0.7s0.7-0.3,0.7-0.7
		C4.4,40.1,4.1,39.7,3.8,39.7"/>
	<path class="st5" d="M-4.3,37.1c-0.1,0-0.1,0-0.2,0C-4.8,37.2-5,37.5-5,37.8c0,0,0,0,0,0c0,0.4,0.3,0.6,0.7,0.6
		c0.4,0,0.7-0.3,0.7-0.7C-3.6,37.4-3.9,37.1-4.3,37.1"/>
	<path class="st5" d="M-6.5,34.8c-0.1-0.3-0.3-0.5-0.6-0.5l0,0c-0.4,0-0.7,0.3-0.7,0.7l0,0c0,0.3,0.2,0.6,0.5,0.6c0.1,0,0.1,0,0.2,0
		c0,0,0.1,0,0.1,0c0.3,0,0.5-0.3,0.6-0.5c0,0,0-0.1,0-0.1C-6.5,34.9-6.5,34.8-6.5,34.8"/>
	<path class="st5" d="M1.7,37.6c-0.1-0.3-0.3-0.5-0.6-0.5c0,0-0.1,0-0.1,0c-0.4,0-0.7,0.3-0.7,0.7c0,0,0,0.1,0,0.1
		c0,0.3,0.3,0.5,0.5,0.6c0,0,0.1,0,0.1,0c0,0,0.1,0,0.1,0c0.3-0.1,0.5-0.3,0.6-0.6c0,0,0-0.1,0-0.1C1.7,37.7,1.7,37.6,1.7,37.6"/>
	<path class="st5" d="M-3.8,43.1c0-0.3-0.2-0.6-0.5-0.6c-0.1,0-0.1,0-0.2,0c-0.4,0-0.7,0.3-0.7,0.7c0,0.4,0.3,0.7,0.7,0.7
		C-4.1,43.7-3.8,43.4-3.8,43.1L-3.8,43.1"/>
	<path class="st5" d="M4.3,35c0-0.4-0.3-0.6-0.6-0.6h0c-0.3,0-0.6,0.2-0.6,0.5c0,0.1,0,0.1,0,0.2c0,0.1,0,0.1,0,0.1
		c0.1,0.3,0.3,0.5,0.6,0.5c0,0,0,0,0.1,0c0.1,0,0.1,0,0.2,0C4.2,35.5,4.3,35.3,4.3,35L4.3,35"/>
	<path class="st5" d="M6.5,37C6.5,37,6.4,37,6.5,37c-0.4,0-0.6,0.3-0.7,0.6c0,0,0,0.1,0,0.1c0,0.4,0.3,0.7,0.7,0.7s0.7-0.3,0.7-0.7
		S6.9,37,6.5,37"/>
	<path class="st5" d="M-1.7,28.8c-0.4,0-0.7,0.3-0.7,0.7c0,0,0,0,0,0.1c0,0.3,0.2,0.5,0.5,0.6c0.1,0,0.1,0,0.1,0c0.1,0,0.1,0,0.1,0
		c0.3-0.1,0.5-0.3,0.5-0.6c0,0,0,0,0-0.1C-1.1,29.1-1.4,28.8-1.7,28.8"/>
	<path class="st6" d="M2.3,35.8l-0.5,0.5c0.2,0.1,0.4,0.3,0.6,0.6l0.5-0.5C2.6,36.2,2.5,36,2.3,35.8"/>
</g>
<path class="st7" d="M18.9,31.7h-1.6c-0.2,0-0.2,0-0.2-0.2V30c0-0.2,0-0.4-0.2-0.5c-0.1-0.1-0.3-0.2-0.5-0.2h-0.6
	c-0.2,0-0.4,0-0.5,0.2c-0.1,0.1-0.2,0.3-0.2,0.5v1.5c0,0.2,0,0.2-0.2,0.2h-0.6c-0.2,0-0.4,0-0.5,0.2c-0.1,0.1-0.2,0.3-0.2,0.5v0.5
	c0,0.2,0,0.4,0.2,0.5c0.1,0.1,0.3,0.2,0.5,0.2H15c0.2,0,0.2,0,0.2,0.2v4.3c0,1,0.3,1.9,0.8,2.5c0.5,0.6,1.3,0.9,2.4,0.9H19
	c0.2,0,0.4,0,0.5-0.2c0.1-0.1,0.2-0.3,0.2-0.5v-0.5c0-0.2,0-0.4-0.2-0.5s-0.3-0.2-0.5-0.2h-0.4c-0.6,0-0.9-0.2-1.1-0.4
	c-0.2-0.3-0.3-0.7-0.3-1.2v-4.2c0-0.2,0-0.2,0.2-0.2H19c0.2,0,0.4,0,0.5-0.2c0.1-0.1,0.2-0.3,0.2-0.5v-0.5c0-0.2,0-0.4-0.2-0.5
	C19.3,31.7,19.1,31.7,18.9,31.7 M36,31.7h-3.2c-0.6,0-1.2,0.1-1.7,0.3c-0.5,0.2-0.9,0.5-1.3,0.9c-0.4,0.4-0.6,0.8-0.8,1.3
	s-0.3,1-0.3,1.6v1.9c0,0.6,0.1,1.1,0.3,1.6c0.2,0.5,0.4,0.9,0.7,1.2c0.3,0.4,0.7,0.6,1.1,0.8c0.4,0.2,0.9,0.3,1.4,0.3
	c0.6,0,1.1-0.1,1.4-0.3c0.4-0.2,0.7-0.4,0.9-0.7c0,0,0.1-0.1,0.2-0.1c0,0,0.1,0.1,0.1,0.2c0,0.2,0,0.3,0.2,0.4
	c0.1,0.1,0.3,0.2,0.5,0.2h0.6c0.2,0,0.4,0,0.5-0.2c0.1-0.1,0.2-0.3,0.2-0.5v-8.3c0-0.2,0-0.4-0.2-0.5C36.4,31.7,36.2,31.7,36,31.7
	 M34.7,37.3c0,0.3,0,0.6-0.2,0.9c-0.1,0.3-0.2,0.5-0.4,0.8c-0.2,0.2-0.4,0.4-0.7,0.6c-0.3,0.2-0.6,0.2-1,0.2c-0.6,0-1-0.2-1.3-0.5
	c-0.3-0.4-0.5-0.8-0.5-1.3v-2.1c0-0.6,0.2-1.1,0.6-1.6c0.4-0.4,0.9-0.7,1.7-0.7h1.6c0.2,0,0.2,0,0.2,0.2L34.7,37.3L34.7,37.3z
	 M45.5,39c-0.3-0.3-0.6-0.3-0.9,0c-0.2,0.2-0.4,0.3-0.6,0.5c-0.3,0.2-0.6,0.2-0.9,0.2c-0.4,0-0.7,0-0.9-0.2
	c-0.2-0.1-0.4-0.3-0.6-0.4c-0.2-0.2-0.3-0.4-0.3-0.7S41,37.9,41,37.7v-2.3c0-0.6,0.2-1,0.5-1.4c0.3-0.4,0.8-0.6,1.5-0.6
	c0.3,0,0.6,0,0.8,0.2c0.3,0.1,0.5,0.2,0.6,0.4c0.3,0.3,0.6,0.3,0.9,0l0.4-0.4c0.1-0.1,0.2-0.3,0.2-0.5c0-0.2,0-0.3-0.2-0.5
	c-0.3-0.3-0.7-0.6-1.1-0.8c-0.5-0.2-1-0.3-1.6-0.3c-0.6,0-1.1,0.1-1.6,0.3c-0.5,0.2-0.9,0.5-1.2,0.8c-0.4,0.4-0.6,0.8-0.8,1.2
	c-0.2,0.5-0.3,0.9-0.3,1.5v2.3c0,0.5,0.1,1,0.2,1.5c0.2,0.5,0.4,0.9,0.7,1.2c0.3,0.4,0.7,0.6,1.2,0.8c0.5,0.2,1.1,0.3,1.7,0.3
	c0.7,0,1.3-0.2,1.8-0.4c0.5-0.3,0.9-0.6,1.1-0.8c0.1-0.2,0.2-0.3,0.2-0.5c0-0.2,0-0.3-0.2-0.4L45.5,39L45.5,39z M26.5,31.7h-0.8
	c-1.1,0-1.9,0.3-2.5,1c-0.6,0.7-0.9,1.5-0.9,2.6v5.5c0,0.2,0,0.4,0.2,0.5s0.3,0.2,0.5,0.2h0.6c0.2,0,0.4,0,0.5-0.2
	c0.1-0.1,0.2-0.3,0.2-0.5v-5.4c0-0.6,0.2-1,0.4-1.3c0.3-0.4,0.7-0.5,1.2-0.5h0.6c0.2,0,0.4,0,0.5-0.2C27,33.2,27,33,27,32.8v-0.5
	c0-0.2,0-0.4-0.2-0.5C26.8,31.7,26.7,31.7,26.5,31.7 M54,32.6c-0.4-0.4-0.7-0.6-1.2-0.8c-0.5-0.2-1-0.3-1.6-0.3
	c-0.6,0-1.1,0.1-1.6,0.3c-0.5,0.2-0.9,0.5-1.2,0.8c-0.3,0.4-0.6,0.8-0.7,1.2c-0.2,0.5-0.2,0.9-0.2,1.5v2.5c0,0.5,0.1,1,0.3,1.5
	c0.2,0.5,0.5,0.9,0.8,1.2c0.4,0.4,0.8,0.6,1.2,0.8c0.5,0.2,1,0.3,1.7,0.3c0.8,0,1.5-0.2,2-0.5c0.6-0.3,1-0.6,1.3-1
	c0.1-0.2,0.2-0.3,0.2-0.5c0-0.2,0-0.3-0.2-0.4l-0.4-0.4c-0.1-0.1-0.3-0.2-0.4-0.2c-0.2,0-0.3,0-0.5,0.2c-0.2,0.2-0.4,0.4-0.7,0.6
	c-0.3,0.2-0.7,0.3-1.3,0.3c-0.7,0-1.2-0.2-1.5-0.6c-0.3-0.4-0.5-0.8-0.5-1.4v-0.4c0-0.2,0-0.2,0.2-0.2h4.9c0.2,0,0.4,0,0.5-0.2
	c0.1-0.1,0.2-0.3,0.2-0.5v-1.3c0-0.5-0.1-1-0.3-1.5C54.6,33.3,54.3,32.9,54,32.6 M53.1,35.3c0,0.2,0,0.2-0.2,0.2h-3.4
	c-0.2,0-0.2,0-0.2-0.2v-0.1c0-0.6,0.2-1,0.4-1.4c0.3-0.4,0.8-0.6,1.4-0.6c0.7,0,1.2,0.2,1.5,0.6c0.3,0.4,0.5,0.8,0.5,1.4L53.1,35.3
	L53.1,35.3z"/>
<circle class="st7" cx="-2" cy="36.8" r="12.7"/>
<path class="st8" d="M-1.8,29.3l-8.6,8.3 M-1.8,29.3l8.6,8.3 M3.8,34.7L-4.8,43 M-7.3,34.7l2.9,2.7 M1,37.4L3.9,40"/>
<circle class="st9" cx="-1.8" cy="29.3" r="1.6"/>
<circle class="st9" cx="-7.4" cy="34.7" r="1.6"/>
<circle class="st9" cx="-10.4" cy="37.6" r="1.6"/>
<circle class="st9" cx="-4.4" cy="37.4" r="1.6"/>
<circle class="st9" cx="1" cy="37.4" r="1.6"/>
<circle class="st9" cx="6.8" cy="37.6" r="1.6"/>
<circle class="st9" cx="3.8" cy="34.7" r="1.6"/>
<circle class="st9" cx="3.9" cy="40" r="1.6"/>
<circle class="st9" cx="-4.8" cy="43" r="1.6"/>
<circle class="st7" cx="-1.8" cy="29.3" r="0.8"/>
<circle class="st7" cx="-7.4" cy="34.7" r="0.8"/>
<circle class="st7" cx="-10.4" cy="37.6" r="0.8"/>
<circle class="st7" cx="-4.4" cy="37.4" r="0.8"/>
<circle class="st7" cx="1" cy="37.4" r="0.8"/>
<circle class="st7" cx="6.8" cy="37.6" r="0.8"/>
<circle class="st7" cx="3.8" cy="34.7" r="0.8"/>
<circle class="st7" cx="3.9" cy="40" r="0.8"/>
<circle class="st7" cx="-4.8" cy="43" r="0.8"/>
</svg>
